<svg id="Capa_1" data-name="Capa 1" xmlns="http://www.w3.org/2000/svg" viewBox="0 0 412.33 170.69"><defs><style>.cls-1{fill:#fff;}</style></defs><title>aguja</title><path class="cls-1" d="M150.71,166.33c-1.61-1-3.69-.56-6.25,3.56C141.31,174.95,44,336,44.83,336.57s102.3-158,105.45-163c2.69-4.33,2-6.19.43-7.19m-19,30.58c-0.61-.38,5.69-12.19,10.44-19.83,3.94-6.33,5.4-8.68,6.76-7.84s-0.1,3.21-4,9.53C140.1,186.42,132.3,197.29,131.69,196.91Z" transform="translate(-43.83 -165.88)"/><path class="cls-1" d="M45.79,258.24c9-31.53,34.66-57.22,65.62-67.45,17.72-5.86,36.29-5.77,54.49-2.28,20.24,3.87,39.59,11.19,59.35,16.84,31.24,8.94,70.22,13.5,97.07-9,4.8-4,11.51-13.07,5-18.7-5-4.37-13-.77-14.82,5-2.65,8.35,3.91,15.73,10.63,19.55,7.36,4.18,15.74,7,23.91,9.07,33.11,8.46,69.74,2.94,98.71-15.29a121.22,121.22,0,0,0,10-7.07c1-.79-0.41-2.19-1.4-1.41-26.23,20.46-61,29.09-93.8,24.42A120.19,120.19,0,0,1,336.73,206c-7.82-2.83-18.39-6.48-21.77-14.89-1.49-3.72-1.52-8.77,1.84-11.53,2.61-2.14,7.18-2.76,9.65-.08,3.29,3.57.57,8.84-2,11.94a40.73,40.73,0,0,1-9.26,7.69c-28.69,18.68-66.11,11.41-96.68,2.13-18.67-5.67-37.18-12.33-56.5-15.48-16.74-2.73-33.76-2.46-50,2.7-28.53,9.06-52.93,30.93-64.45,58.64a95.31,95.31,0,0,0-3.67,10.56,1,1,0,0,0,1.92.53" transform="translate(-43.83 -165.88)"/></svg>