<svg id="Capa_1" data-name="Capa 1" xmlns="http://www.w3.org/2000/svg" viewBox="0 0 116.56 437.04"><defs><style>.cls-1{fill:#fff;}</style></defs><title>maniquí</title><path class="cls-1" d="M206.22,296.45a137.63,137.63,0,0,1,1.33-73.79,124.38,124.38,0,0,1,6.69-17.27c2.73-5.74,5.88-11.48,7.17-17.77,2.68-13-4.95-24.49-9.91-36a182.75,182.75,0,0,1-7.55-20.91c-2.11-7.14-3.53-14.39-5.11-21.65-0.39-1.77-3.46-1.42-3.23.43a138.26,138.26,0,0,0,4.27,19.68,186,186,0,0,0,6.28,18.65c2.4,6,5.24,11.86,8,17.76s4.92,11.9,4.36,18.35c-0.54,6.21-3.45,12-6.11,17.48a141.31,141.31,0,0,0-7.07,17.23,130.45,130.45,0,0,0-6.38,36.87,118.66,118.66,0,0,0,6,41.23,0.65,0.65,0,0,0,1.25-.34h0Z" transform="translate(-191.7 -32.91)"/><path class="cls-1" d="M198.44,110.21c-1.78-3.41,3-5.86,5.31-7.25,3.59-2.2,7.14-4.46,10.7-6.69s7-4.4,10.48-6.61l5.23-3.32,2.71-1.73a9.68,9.68,0,0,0,2.53-1.84A1.43,1.43,0,0,0,234,80.4a11.07,11.07,0,0,0-3.14,1.72l-2.72,1.71-5.83,3.66q-5.94,3.73-11.83,7.5c-3.68,2.35-7.57,4.54-11,7.2a8.67,8.67,0,0,0-3.23,4.15,5.86,5.86,0,0,0,.33,5,1.08,1.08,0,0,0,1.86-1.09h0Z" transform="translate(-191.7 -32.91)"/><path class="cls-1" d="M234.91,59.24a89.42,89.42,0,0,1,.18,12.28c-0.1,2-.3,4.07-0.57,6.09-0.14,1-.31,2.06-0.49,3.08s-0.33,1.77.44,2.55a1.19,1.19,0,0,0,1.39.18c1-.48,1-1.35,1.16-2.32s0.24-2.07.33-3.1c0.18-2.15.28-4.31,0.3-6.47A71,71,0,0,0,236.53,59a0.83,0.83,0,0,0-1.61.22h0Z" transform="translate(-191.7 -32.91)"/><path class="cls-1" d="M243.56,305.64c-0.7,8.55-.48,17.23-0.51,25.81s0,17.36-.07,26c0,17.2-.11,34.41,0,51.61,0.06,9.74,0,19.52.46,29.26a0.87,0.87,0,0,0,1.73,0c0.37-8.59.32-17.2,0.42-25.81s0-17.36.06-26c0-17.2,0-34.4-.09-51.61,0-4.84,0-9.68-.06-14.52s-0.06-9.84-.45-14.75a0.73,0.73,0,0,0-1.47,0h0Z" transform="translate(-191.7 -32.91)"/><path class="cls-1" d="M204.06,294.16c-1.29,3.84,2.62,6.14,5.63,7.19a94.32,94.32,0,0,0,11.19,3.09c3.55,0.77,7.14,1.29,10.75,1.74,1.83,0.22,3.66.42,5.5,0.6a62.48,62.48,0,0,0,6.28.55c1.48,0,1.9-2.36.36-2.67-1.77-.34-3.63-0.4-5.43-0.58s-3.45-.35-5.18-0.55q-4.86-.57-9.65-1.46c-3.2-.6-6.6-1.38-9.84-2.31-2.64-.76-8.27-1.65-7.94-5.38,0.08-1-1.38-1.09-1.67-.23h0Z" transform="translate(-191.7 -32.91)"/><path class="cls-1" d="M295.38,297.46c8-23.73,7.93-49.87,1-73.86a131.45,131.45,0,0,0-6.46-17.41c-2.56-5.64-5.71-11.16-7.26-17.24s-0.57-12.35,1.74-18.31,5.51-11.75,8-17.71a189.71,189.71,0,0,0,7.49-21,141.35,141.35,0,0,0,4.86-21.73c0.23-1.84-2.84-2.23-3.23-.43-1.42,6.57-2.68,13.12-4.52,19.59A189.3,189.3,0,0,1,290.65,148c-2.41,6-5.33,11.75-8,17.66-2.55,5.72-4.69,11.82-4.33,18.17S281.27,196,284,201.62a161.75,161.75,0,0,1,7.46,17.48,131.48,131.48,0,0,1,6.95,36.33,142.32,142.32,0,0,1-4.25,41.69,0.65,0.65,0,0,0,1.25.34h0Z" transform="translate(-191.7 -32.91)"/><path class="cls-1" d="M303.78,112c1.91-3.25-.11-6.93-2.76-9-3.49-2.73-7.46-4.94-11.19-7.32s-7.74-4.94-11.63-7.38l-5.83-3.66-2.92-1.83a11.42,11.42,0,0,0-3.14-1.72,1.43,1.43,0,0,0-1.37,2.36,10,10,0,0,0,2.53,1.84L270.17,87l5,3.2q5.33,3.39,10.67,6.74c3.56,2.23,7,4.4,10.51,6.57,2.29,1.41,7.33,3.89,5.51,7.37a1.08,1.08,0,0,0,1.86,1.09h0Z" transform="translate(-191.7 -32.91)"/><path class="cls-1" d="M263.83,59.68a72.82,72.82,0,0,0-1.13,12.5q0,3.13.28,6.25c0.08,1,.19,2.08.32,3.1s0.15,2,1.19,2.54a1.17,1.17,0,0,0,1.39-.18c0.77-.78.61-1.56,0.44-2.55s-0.35-2-.49-3.08c-0.28-2-.46-4.05-0.57-6.09a88,88,0,0,1,.18-12.28,0.83,0.83,0,0,0-1.61-.22h0Z" transform="translate(-191.7 -32.91)"/><path class="cls-1" d="M252.56,307.23c-0.7,8.55-.48,17.23-0.51,25.81s0,17.36-.07,26c0,17.2-.11,34.4,0,51.61,0.06,9.74,0,19.52.46,29.26a0.87,0.87,0,0,0,1.73,0c0.37-8.59.32-17.2,0.42-25.81s0-17.36.06-26c0-17.2,0-34.41-.09-51.61,0-4.84,0-9.68-.06-14.52s-0.06-9.84-.45-14.75a0.73,0.73,0,0,0-1.47,0h0Z" transform="translate(-191.7 -32.91)"/><path class="cls-1" d="M294.62,295.06c0.36,3.75-5.34,4.64-8,5.38a109,109,0,0,1-11,2.43q-5.59,1-11.23,1.6c-1.87.21-3.75,0.41-5.62,0.6s-3.74.25-5.54,0.59c-1.52.29-1.13,2.66,0.36,2.67,2.15,0,4.35-.36,6.49-0.57s4-.42,6.05-0.66c4.14-.49,8.29-1.06,12.38-1.88A88.86,88.86,0,0,0,290.67,302a10.31,10.31,0,0,0,4.54-2.55,5,5,0,0,0,1.09-4.64c-0.29-.86-1.77-0.78-1.67.23h0Z" transform="translate(-191.7 -32.91)"/><path class="cls-1" d="M218.66,189c0.31,3.4,3.79,5.35,6.72,6.27,3.85,1.22,7.82.78,11.78,0.94a229.23,229.23,0,0,0,27.82-.92c2.57-.21,5.17-0.4,7.72-0.82,1.32-.22,2.64-0.46,4-0.71a7.63,7.63,0,0,0,3.63-1.27,1.47,1.47,0,0,0-.65-2.44,6.36,6.36,0,0,0-3,.21c-1,.22-2.18.45-3.28,0.66-2.11.41-4.22,0.85-6.32,1.27a99.87,99.87,0,0,1-13.15,1.63,103,103,0,0,1-25-1.08,17.27,17.27,0,0,1-4.7-1.37,11.33,11.33,0,0,1-3.52-3.19,1.18,1.18,0,0,0-2,.82h0Z" transform="translate(-191.7 -32.91)"/><path class="cls-1" d="M295.38,136.43c-1-.35-1.95.47-3,0.28l0.84,0.65a9.54,9.54,0,0,1-1.11-1.74,12.18,12.18,0,0,1-.51-1.89,17.19,17.19,0,0,1-.28-4.24,27.31,27.31,0,0,1,1.91-8.25,42.5,42.5,0,0,1,3.78-7.59,9.32,9.32,0,0,1,2.26-2.88c0.63-.43,1.93-1,2.65-0.43a1.77,1.77,0,1,0,2.15-2.79,5.25,5.25,0,0,0-5.47-.22,8.56,8.56,0,0,0-3.37,4c-0.85,1.85-1.5,3.78-2.37,5.61a47.54,47.54,0,0,0-2.36,5.89,23.52,23.52,0,0,0-.83,11.8c0.21,1,.55,2,0.77,3A1.86,1.86,0,0,0,292,139.5c1.37,0.28,4.23-.29,4.06-2.18a1,1,0,0,0-.66-0.88h0Z" transform="translate(-191.7 -32.91)"/><path class="cls-1" d="M198.37,110c1.31-2.31,4-1.49,5.5.11,2.16,2.26,3.13,5.71,3.84,8.67a34.73,34.73,0,0,1,.9,9.91,8,8,0,0,1-.93,4.18,3,3,0,0,1-1.25,1.22,1.67,1.67,0,0,1-1.22-.26c-1.89-.78-3.05,1.94-1.86,3.2,2.46,2.65,7,.24,7.5-2.87a40.82,40.82,0,0,0,.4-10.44,36.89,36.89,0,0,0-2.54-10.57c-1.18-2.9-2.49-6.12-5.67-7.29-2.8-1-6.51.33-6.92,3.53-0.16,1.24,1.71,1.59,2.26.61h0Z" transform="translate(-191.7 -32.91)"/><path class="cls-1" d="M206.61,143.12c2.67-.76,5-2.39,7.57-3.53a45,45,0,0,1,8.13-2.94,89.51,89.51,0,0,1,17.18-1.93A135.44,135.44,0,0,1,292,143.48c1.42,0.54,2-1.75.63-2.28A138,138,0,0,0,241,132.44a106.32,106.32,0,0,0-17.39,1.62,46.34,46.34,0,0,0-9.43,2.59c-3,1.27-6.17,2.65-8.54,4.8a1,1,0,0,0,1,1.69v0Z" transform="translate(-191.7 -32.91)"/><path class="cls-1" d="M233.15,82.75c1.23,2.23,4.16,3.66,6.45,4.46a23.66,23.66,0,0,0,4.2.56,23,23,0,0,0,3.9.3,36,36,0,0,0,9-1.38c1.56-.42,3.1-0.91,4.61-1.47s3.39-.92,4.43-2a1.27,1.27,0,0,0-.89-2.14c-1.37.08-2.68,1.05-3.91,1.63s-2.76,1.27-4.18,1.82a27.1,27.1,0,0,1-8.56,1.94,21.29,21.29,0,0,1-3.52-.15,5.89,5.89,0,0,1-2.1-.54c-0.51-.27-1-0.58-1.49-0.8a21,21,0,0,1-3.22-1.69c-1-.66-1.94-1.63-3-2.29a1.29,1.29,0,0,0-1.73,1.74h0Z" transform="translate(-191.7 -32.91)"/><path class="cls-1" d="M235.36,59.06c-0.81,3.06,2.09,4.76,4.58,5.47a51.75,51.75,0,0,0,10.31,2.09,22.34,22.34,0,0,0,8.93-1,15.24,15.24,0,0,0,3.75-1.86c1.13-.8,2.56-1.86,3-3.22a1.22,1.22,0,0,0-1.78-1.37c-0.91.59-1.55,1.57-2.41,2.25a14.07,14.07,0,0,1-2.86,1.74,16.51,16.51,0,0,1-7.14,1.38,36.86,36.86,0,0,1-8.33-1.25c-1.71-.42-6.8-1-6.38-3.7a0.88,0.88,0,0,0-1.7-.47h0Z" transform="translate(-191.7 -32.91)"/><path class="cls-1" d="M265.39,58.92a16.15,16.15,0,0,0-1.44-1.32,13.23,13.23,0,0,0-1.64-1,18.37,18.37,0,0,0-3.62-1.41,16.9,16.9,0,0,0-3.76-.54,16.26,16.26,0,0,0-1.9,0,2,2,0,0,0-1.89.82,0.91,0.91,0,0,0,.13,1,1.76,1.76,0,0,0,1.65.42,14.63,14.63,0,0,1,1.8,0,17.71,17.71,0,0,1,3.34.52,15.3,15.3,0,0,1,3.11,1.09c0.54,0.26,1.05.57,1.58,0.86s1.06,0.52,1.57.86a0.89,0.89,0,0,0,1.07-1.39h0Z" transform="translate(-191.7 -32.91)"/><path class="cls-1" d="M246.35,55.42a12.26,12.26,0,0,0-6.45.52,14.61,14.61,0,0,0-3,1.43,12.27,12.27,0,0,0-1.42,1.08,2.28,2.28,0,0,0-1,2.21,1.41,1.41,0,0,0,1.35,1c1.18,0,1.89-1.32,2.68-2a8.76,8.76,0,0,1,2.21-1.55,10.45,10.45,0,0,1,5.33-1,0.83,0.83,0,0,0,.22-1.62h0Z" transform="translate(-191.7 -32.91)"/><path class="cls-1" d="M240.11,306.43a3.05,3.05,0,0,0,2.25.65c0.89,0.07,1.76.18,2.65,0.21,1.64,0.07,3.29.1,4.95,0.15l4.95,0.15c1.48,0,3.74.28,4.71-1.08a0.92,0.92,0,0,0,0-1c-0.91-1.38-3.26-1.19-4.71-1.19H250c-1.64,0-3.29,0-4.95,0-0.82,0-1.65.08-2.47,0.13s-1.78-.07-2.43.61a1,1,0,0,0,0,1.33h0Z" transform="translate(-191.7 -32.91)"/><path class="cls-1" d="M299,245a83.21,83.21,0,0,1-16.56,8.3,76.8,76.8,0,0,1-18.22,3.94c-13.31,1.34-26.65-.22-39.7-3-3.77-.79-7.53-1.68-11.27-2.59s-7.66-2.24-11.54-2.69a1.49,1.49,0,0,0-1.49,1.31,1.53,1.53,0,0,0,1.09,1.66,42.34,42.34,0,0,0,5.15,1.39l5.52,1.35c3.4,0.82,6.82,1.62,10.25,2.35a159.79,159.79,0,0,0,20.91,3.16,101.73,101.73,0,0,0,38.52-4,56.74,56.74,0,0,0,18.63-9.56c0.92-.74-0.28-2.26-1.25-1.63h0Z" transform="translate(-191.7 -32.91)"/><path class="cls-1" d="M226.59,303.53c-0.66-7.14-1.59-14.21-1.91-21.38a194.13,194.13,0,0,1,.23-21.49,188.63,188.63,0,0,1,2.63-21.35c1.25-6.91,2.83-13.75,4.31-20.61s2.8-13.67,3.62-20.6a106.92,106.92,0,0,0,.39-21.18c-0.56-7-1.64-13.93-2.64-20.88-0.94-6.53-1.8-13.07-2.83-19.58-2.3-14.49-5.65-28.95-12.34-42.1-0.83-1.63-3.35-.18-2.46,1.44,6.32,11.54,9.45,24.4,11.64,37.29,1.09,6.36,1.94,12.76,2.8,19.15,1,7,2,14,2.75,21.11a113.35,113.35,0,0,1,.3,20.86A175.39,175.39,0,0,1,229.79,215c-2.86,13.7-6.1,27.26-7.35,41.24a193.66,193.66,0,0,0-.68,23.71,133,133,0,0,0,2.5,23.93c0.29,1.29,2.48,1,2.35-.31Z" transform="translate(-191.7 -32.91)"/><path class="cls-1" d="M277,304c1.39-13.9,2.27-27.93,2.32-41.9a210.65,210.65,0,0,0-3.42-40.93,182.94,182.94,0,0,0-5.2-19.75c-2.09-6.69-4.13-13.45-4.67-20.48A93.39,93.39,0,0,1,267.15,160c1.06-7.07,2.44-14.11,3.91-21.12q4.93-23.45,12.1-46.34c0.54-1.75-2.18-2.48-2.72-.75q-6.44,20.51-11.08,41.52c-1.54,7-3,14-4.17,21.07a121.5,121.5,0,0,0-2.18,21,73.09,73.09,0,0,0,3.18,20.48c2,6.69,4.27,13.27,5.9,20.06a190.46,190.46,0,0,1,4.65,41.15c0.23,15.68-1,31.27-1.61,46.92,0,1.25,1.78,1.2,1.9,0h0Z" transform="translate(-191.7 -32.91)"/><path class="cls-1" d="M248.4,58.22c0.48-4.62-1.21-8.64-2.51-13a13.12,13.12,0,0,1-.68-6.08c0.28-1.54,1.22-3.75,3.11-3.68,2.23,0.07,1.6,3.14,1.61,4.64,0,2.29,0,4.58,0,6.86,0,2.44,0,4.88,0,7.32,0,1.22,0,2.45,0,3.67,0,0.33.1,1-.34,1.12a0.38,0.38,0,0,1-.46-0.31c-0.19-2-3.3-2-3.08,0s1.86,3.77,4,3.24c2.43-.59,2.68-2.86,2.65-5-0.06-5.19-.09-10.37-0.13-15.56,0-2.1.45-4.89-.71-6.76A4.36,4.36,0,0,0,247.4,33c-4.19.79-5.07,6-4.55,9.53,0.8,5.38,3.86,10.09,3.46,15.7-0.1,1.37,2,1.33,2.1,0h0Z" transform="translate(-191.7 -32.91)"/><path class="cls-1" d="M243.08,437.72a4.56,4.56,0,0,0,0,2.06,0.38,0.38,0,1,0,0,.08c0,0.22,0,.46.11,0.68a9,9,0,0,0,.39,1A5,5,0,0,0,246.9,444c2.74,0.66,6.09-.8,7-3.57a1.84,1.84,0,0,0-1.07-2.18,1.86,1.86,0,0,0-2.31.76l-0.35.56c-0.2.33,0.29-.31,0,0l-0.22.24-0.24.22c-0.25.24,0.34-.21,0,0a6.1,6.1,0,0,1-.53.31c-0.37.18,0.2-.06,0,0l-0.31.11a3.69,3.69,0,0,0-.59.14,1.21,1.21,0,1,0,.16,0h-0.11a1.34,1.34,0,0,1-.33,0l-0.33,0c0.46,0,.21,0,0,0l-0.32-.09-0.11,0a1.05,1.05,0,1,0,.11.06,2.12,2.12,0,0,0-.56-0.27l-0.29-.18c-0.22-.15-0.11,0,0,0a1,1,0,0,1-.26-0.22c-0.17-.14-0.34-0.26-0.51-0.39,0.31,0.26,0,0,0,0a2.84,2.84,0,0,1-.23-0.24,2.74,2.74,0,0,0-.22-0.24c0.19,0.19,0-.13,0,0.08a5.7,5.7,0,0,1-.35-1.29,1.07,1.07,0,0,0-2.06,0h0Z" transform="translate(-191.7 -32.91)"/><path class="cls-1" d="M305.65,441.73c-0.09.42-.2,0.82-0.33,1.23-0.23.73-.27,0.71-0.45,1.33-0.11.38-.22,0.77-0.35,1.14-0.07.21-.15,0.42-0.23,0.62a1.26,1.26,0,0,1-.13.31,22.08,22.08,0,0,1-1.21,2.25c-0.22.36-.43,0.72-0.67,1.07-0.11.17-.23,0.33-0.35,0.49a2.91,2.91,0,0,1-.2.27c-0.23.31,0.24-.29,0,0a28,28,0,0,1-3.91,3.85l-0.24.19-0.54.41c-0.42.3-.83,0.59-1.25,0.87-0.86.56-1.74,1.09-2.64,1.59s-1.91,1-2.89,1.45c-0.46.21-.93,0.42-1.4,0.62a3.38,3.38,0,0,0-.48.19l-0.9.35a68.64,68.64,0,0,1-6.72,2.18c-2.45.66-4.94,1.22-7.44,1.68-2.76.51-5,.83-7.57,1.12a145.12,145.12,0,0,1-32.89-.18c-2.19-.26-5-0.71-7.5-1.2s-4.89-1-7.3-1.69c-2.24-.61-4.46-1.31-6.62-2.13-0.47-.18-1-0.36-1.41-0.55l-0.45-.18-0.75-.32c-0.94-.42-1.86-0.86-2.78-1.34a35.61,35.61,0,0,1-4.71-2.95,1.28,1.28,0,0,1-.25-0.19l-0.51-.42c-0.32-.28-0.65-0.56-1-0.86a21.2,21.2,0,0,1-1.59-1.7l-0.18-.23c-0.17-.21.29,0.39,0,0.06l-0.3-.42c-0.23-.32-0.44-0.66-0.65-1s-0.32-.58-0.47-0.89c-0.07-.15-0.14-0.3-0.2-0.45,0.15,0.32,0,.09-0.07-0.2a15.56,15.56,0,0,1-.54-2c-0.09-.43,0,0.44,0-0.08,0-.18,0-0.36,0-0.54,0-.37,0-0.74,0-1.11s0-.68.08-1a1.67,1.67,0,1,0,0-.18c0-.19.07-0.39,0.12-0.58h-3.69c1.17,6.16,7.8,9.57,13.07,11.63,8.32,3.25,17.43,4.54,26.28,5.34a190.3,190.3,0,0,0,31.37.11c9.52-.74,19.15-2.06,28.29-4.91a45.32,45.32,0,0,0,10.24-4.4c2.39-1.47,5-3.49,6.17-6.11,0.15-.33.3-0.66,0.42-1,0-.13.09-0.26,0.13-0.39,0.08-.31.12-0.43,0.12-0.43,0.58-1.47-1.79-2.11-2.36-.66-0.13.32,0.18-.29,0.18-0.29a2.25,2.25,0,0,0-.25.34l-0.22.34-0.24.34a0.31,0.31,0,0,1-.1.13c-0.18.22-.38,0.42-0.56,0.64a1.62,1.62,0,0,1-.3.33c-0.11.13-.23,0.25-0.35,0.37a15.53,15.53,0,0,1-1.42,1.27l0,0-0.2.15-0.42.3c-0.3.21-.62,0.42-0.93,0.62a34.3,34.3,0,0,1-4.08,2.24,45.45,45.45,0,0,1-4.64,1.89c-8.43,3-17.41,4.4-26.16,5.25a189,189,0,0,1-30.5.47c-8.9-.59-17.7-1.68-26.3-4.44-0.88-.28-1.74-0.58-2.6-0.9l-1.23-.48-0.22-.09c-0.27-.11.28,0.12,0,0l-0.65-.29a29,29,0,0,1-4.15-2.24c-0.28-.18-0.55-0.37-0.82-0.56l-0.42-.3c0.43,0.33-.06-0.06-0.16-0.13a16.48,16.48,0,0,1-1.43-1.35c-0.19-.21-0.37-0.42-0.55-0.64,0,0,.2.3,0,0l-0.28-.4c-0.15-.22-0.28-0.45-0.41-0.68s-0.43-1-.22-0.43a10.4,10.4,0,0,1-.45-1.56c-0.35-1.87-3.28-1.79-3.69,0a13.79,13.79,0,0,0,1.31,9.79,22.19,22.19,0,0,0,7.58,7.62c7.91,5.17,17.64,7.58,26.85,9.09,3.05,0.5,5.48.82,8.52,1.14q4.23,0.46,8.48.66a130.73,130.73,0,0,0,17.11-.38c10.44-.88,21.08-2.8,30.61-7.3A34.2,34.2,0,0,0,302.89,455a20.47,20.47,0,0,0,3.4-4.64c0.09-.18.42-0.91,0.17-0.36l0.11-.24c0.14-.3.27-0.61,0.39-0.92s0.31-.81.44-1.23A17.53,17.53,0,0,0,308,445a7.13,7.13,0,0,0,0-1c0,0.06,0,.35,0,0s0-.44,0-0.66c0-.45-0.06-0.9-0.13-1.36-0.16-1.18-1.95-1.69-2.27-.3h0Z" transform="translate(-191.7 -32.91)"/><path class="cls-1" d="M194.86,445c0.06-3.59,4.15-5.72,6.93-7.1a88.18,88.18,0,0,1,10.63-4.4A87.3,87.3,0,0,1,235,428.88q2.89-.19,5.8-0.19a4.21,4.21,0,0,0,2.75-.63,1.78,1.78,0,0,0,.46-2.31c-1-1.71-4-1.17-5.69-1.13q-2.91.08-5.79,0.36a89.39,89.39,0,0,0-22.74,5.09A80.22,80.22,0,0,0,198,435.39c-3.72,2.11-6.65,5.37-5.84,9.93,0.28,1.54,2.64,1.13,2.67-.36h0Z" transform="translate(-191.7 -32.91)"/><path class="cls-1" d="M253.38,428.36c7.68,0.39,15.33,0,23,1.38A77.08,77.08,0,0,1,298,436.87a19.41,19.41,0,0,1,4.59,2.89,6.53,6.53,0,0,1,1.43,1.86c0.43,0.82.48,1.64,1.24,2.29a1.53,1.53,0,0,0,2.1,0c1.45-1.38.68-3.7-.3-5.15a13.79,13.79,0,0,0-4-3.73,58.64,58.64,0,0,0-11.1-5.24,78.84,78.84,0,0,0-24.74-5.14,66.31,66.31,0,0,0-6.91,0,31.2,31.2,0,0,0-7.2,1.38,1.18,1.18,0,0,0,.31,2.3h0Z" transform="translate(-191.7 -32.91)"/><path class="cls-1" d="M251.13,458.28l2.12,3.79a32.36,32.36,0,0,0,2.24,3.72c0.15,0.2.57,0.09,0.45-.19a35.34,35.34,0,0,0-2-3.83l-2.2-3.83a0.34,0.34,0,0,0-.58.34h0Z" transform="translate(-191.7 -32.91)"/><path class="cls-1" d="M254.85,457.77c0.76,1.57,1.5,3.14,2.27,4.69l1.13,2.3a12.26,12.26,0,0,0,1.25,2.2c0.17,0.21.49,0,.42-0.25a12.48,12.48,0,0,0-1-2.25c-0.4-.79-0.79-1.58-1.18-2.37-0.77-1.55-1.57-3.09-2.36-4.64-0.18-.37-0.73,0-0.55.32h0Z" transform="translate(-191.7 -32.91)"/><path class="cls-1" d="M257.24,458.06a44.54,44.54,0,0,0,2.43,4.83c0.44,0.77.92,1.51,1.41,2.25a9.6,9.6,0,0,0,1.67,2.08,0.28,0.28,0,0,0,.43-0.33,16.63,16.63,0,0,0-1.42-2.23c-0.49-.73-1-1.49-1.42-2.25a45.77,45.77,0,0,1-2.45-4.72c-0.19-.44-0.84-0.06-0.65.38h0Z" transform="translate(-191.7 -32.91)"/><path class="cls-1" d="M259.94,458.33a39.66,39.66,0,0,0,2.66,4.84c0.49,0.76,1,1.51,1.55,2.23a7,7,0,0,0,1.78,2,0.3,0.3,0,0,0,.43-0.33,9.25,9.25,0,0,0-1.5-2.14c-0.55-.72-1.07-1.47-1.58-2.22a46.83,46.83,0,0,1-2.75-4.69c-0.2-.4-0.77,0-0.59.34h0Z" transform="translate(-191.7 -32.91)"/><path class="cls-1" d="M261.33,457.49a47.09,47.09,0,0,0,3.3,5.16c0.58,0.78,1.19,1.55,1.82,2.3a7.76,7.76,0,0,0,2.17,2.15,0.31,0.31,0,0,0,.42-0.42,9.94,9.94,0,0,0-1.82-2.26c-0.66-.77-1.3-1.55-1.92-2.35a57.33,57.33,0,0,1-3.38-4.92,0.35,0.35,0,0,0-.61.36h0Z" transform="translate(-191.7 -32.91)"/><path class="cls-1" d="M265.27,458.36c0.89,1.27,1.77,2.56,2.67,3.82l1.34,1.91a5.71,5.71,0,0,0,1.42,1.72,0.34,0.34,0,0,0,.5-0.38A5.91,5.91,0,0,0,270,463.5l-1.33-1.83L266,458c-0.3-.41-1,0-0.69.41h0Z" transform="translate(-191.7 -32.91)"/><path class="cls-1" d="M267.76,457.51c0.84,1.3,1.68,2.61,2.55,3.9l1.29,1.94c0.21,0.32.43,0.65,0.66,1a1.49,1.49,0,0,0,.79.69,0.39,0.39,0,0,0,.49-0.38,1.64,1.64,0,0,0-.4-1c-0.2-.31-0.44-0.65-0.66-1l-1.31-1.85c-0.89-1.26-1.8-2.48-2.7-3.72-0.3-.42-1,0-0.72.42h0Z" transform="translate(-191.7 -32.91)"/><path class="cls-1" d="M270.84,456c0.78,1.38,1.58,2.75,2.38,4.11,0.4,0.67.78,1.35,1.19,2,0.2,0.33.41,0.66,0.63,1a2.09,2.09,0,0,0,.79.83,0.38,0.38,0,0,0,.56-0.32,4.13,4.13,0,0,0-.9-2c-0.42-.69-0.85-1.37-1.27-2-0.84-1.34-1.7-2.68-2.56-4a0.47,0.47,0,0,0-.81.47h0Z" transform="translate(-191.7 -32.91)"/><path class="cls-1" d="M273.61,456.2c0.66,1,1.31,2.09,2,3.12l1,1.52a4.84,4.84,0,0,0,1.19,1.43,0.4,0.4,0,0,0,.58-0.45,5.08,5.08,0,0,0-.89-1.64c-0.33-.5-0.66-1-1-1.46-0.68-1-1.39-2-2.09-3-0.33-.46-1.09,0-0.77.45v0Z" transform="translate(-191.7 -32.91)"/><path class="cls-1" d="M277.1,455.82a18.23,18.23,0,0,0,1.57,3.22,15.55,15.55,0,0,0,1,1.44,4.29,4.29,0,0,0,1.32,1.23c0.2,0.1.54-.07,0.42-0.33a6.36,6.36,0,0,0-.89-1.38c-0.35-.46-0.69-0.93-1-1.41a19.17,19.17,0,0,1-1.61-3A0.43,0.43,0,1,0,277.1,455.82Z" transform="translate(-191.7 -32.91)"/><path class="cls-1" d="M280,455.47c0.77,1,1.53,2,2.31,3,0.38,0.48.76,1,1.15,1.45a5.35,5.35,0,0,0,1.34,1.32,0.39,0.39,0,0,0,.56-0.43,5.13,5.13,0,0,0-1-1.53c-0.4-.51-0.81-1-1.23-1.5-0.79-1-1.61-1.91-2.41-2.86a0.49,0.49,0,0,0-.77.59v0Z" transform="translate(-191.7 -32.91)"/><path class="cls-1" d="M284.85,455.71l1.47,2.22A11.22,11.22,0,0,0,288,460c0.18,0.18.57,0,.46-0.27a11.5,11.5,0,0,0-1.33-2.28l-1.52-2.18a0.42,0.42,0,0,0-.56-0.15,0.41,0.41,0,0,0-.15.56h0Z" transform="translate(-191.7 -32.91)"/><path class="cls-1" d="M249,458.8l0.66,3.78a25.71,25.71,0,0,0,.81,3.74,0.3,0.3,0,0,0,.58-0.08,26.69,26.69,0,0,0-.58-3.8c-0.24-1.26-.5-2.56-0.75-3.83-0.09-.48-0.8-0.27-0.72.2h0Z" transform="translate(-191.7 -32.91)"/><path class="cls-1" d="M244.42,461.91c0,1.26,0,2.51,0,3.77a0.18,0.18,0,0,0,.36,0c0.06-1.26,0-2.51,0-3.77a0.22,0.22,0,0,0-.44,0h0Z" transform="translate(-191.7 -32.91)"/><path class="cls-1" d="M239.5,461.64L239.37,463a6.58,6.58,0,0,0-.06,1.35,0.23,0.23,0,0,0,.45.06A7,7,0,0,0,240,463l0.14-1.38a0.3,0.3,0,0,0-.3-0.3,0.31,0.31,0,0,0-.3.3h0Z" transform="translate(-191.7 -32.91)"/><path class="cls-1" d="M249.22,444.25a6.18,6.18,0,0,0,3.55-1.57,6.54,6.54,0,0,0,1.24-1.52,3.37,3.37,0,0,0,.57-1.87,0.27,0.27,0,0,0-.51-0.14,7.6,7.6,0,0,0-.34.84,7,7,0,0,1-.37.75,5.65,5.65,0,0,1-1.07,1.36,5.54,5.54,0,0,1-3.06,1.49c-0.42.06-.43,0.71,0,0.67h0Z" transform="translate(-191.7 -32.91)"/><path class="cls-1" d="M250.56,441.82a23.76,23.76,0,0,1-1.41,2.38,0.44,0.44,0,0,0,.5.65,5.81,5.81,0,0,0,1.52-.69,8.59,8.59,0,0,0,1.35-1,5.72,5.72,0,0,0,1.9-2.69,0.35,0.35,0,0,0-.58-0.33c-0.34.38-.63,0.81-1,1.2a10.75,10.75,0,0,1-1,1.11,8.81,8.81,0,0,1-1.17.88c-0.44.28-.92,0.47-1.37,0.72l0.65,0.5a23.85,23.85,0,0,1,1.15-2.4,0.32,0.32,0,0,0-.55-0.32h0Z" transform="translate(-191.7 -32.91)"/><path class="cls-1" d="M251.94,441.2c-0.71.78-1.39,1.59-2.17,2.31a0.42,0.42,0,0,0,.51.66,15.78,15.78,0,0,0,3.24-2.28,13.91,13.91,0,0,0,1.37-1.39,5.9,5.9,0,0,0,1.08-1.67c0.12-.31-0.3-0.49-0.52-0.3a14.56,14.56,0,0,0-1.25,1.37,18.47,18.47,0,0,1-1.33,1.37,17.16,17.16,0,0,1-3,2.2l0.57,0.57c0.61-.82,1.32-1.57,2-2.33,0.29-.32-0.18-0.8-0.48-0.48h0Z" transform="translate(-191.7 -32.91)"/><path class="cls-1" d="M251.88,445.07a13.56,13.56,0,0,0,2.94-2.34,13,13,0,0,0,1.22-1.45,8.44,8.44,0,0,0,.51-0.77,1.76,1.76,0,0,0,.3-1,0.36,0.36,0,0,0-.54-0.3,2,2,0,0,0-.66.68l-0.49.68a15.36,15.36,0,0,1-1.09,1.37,16.21,16.21,0,0,1-2.63,2.34A0.43,0.43,0,0,0,251.88,445.07Z" transform="translate(-191.7 -32.91)"/><path class="cls-1" d="M252.15,445.63c1-.67,1.92-1.35,2.86-2,0.46-.33.92-0.66,1.37-1a3.17,3.17,0,0,0,1.25-1.31,0.37,0.37,0,0,0-.36-0.47,3.1,3.1,0,0,0-1.54.79l-1.43,1.1c-0.92.72-1.85,1.44-2.76,2.18a0.49,0.49,0,0,0,.59.77h0Z" transform="translate(-191.7 -32.91)"/><path class="cls-1" d="M253.32,447.09c0.9-.59,1.81-1.18,2.7-1.79l1.32-.9a7.19,7.19,0,0,0,.67-0.51,1.34,1.34,0,0,0,.51-0.66,0.39,0.39,0,0,0-.37-0.48,1.31,1.31,0,0,0-.77.25c-0.23.13-.45,0.3-0.66,0.44l-1.29.94c-0.87.63-1.71,1.29-2.56,1.94a0.46,0.46,0,0,0-.16.61,0.44,0.44,0,0,0,.61.16h0Z" transform="translate(-191.7 -32.91)"/><path class="cls-1" d="M254.91,447.64l2.6-1.37,1.25-.67a3.93,3.93,0,0,0,1.25-.87,0.37,0.37,0,0,0-.26-0.63,4,4,0,0,0-1.42.54l-1.28.71-2.6,1.47a0.47,0.47,0,0,0,.47.81h0Z" transform="translate(-191.7 -32.91)"/><path class="cls-1" d="M256.76,449.64a8.12,8.12,0,0,0,5.32-2.33,0.3,0.3,0,0,0-.36-0.47,16.62,16.62,0,0,1-2.38,1.32,9.77,9.77,0,0,1-2.58.71,0.39,0.39,0,0,0-.38.38,0.38,0.38,0,0,0,.38.38h0Z" transform="translate(-191.7 -32.91)"/><path class="cls-1" d="M257.67,451a19.72,19.72,0,0,0,3.5-1.47,10.69,10.69,0,0,0,3.07-2.21,0.33,0.33,0,0,0-.4-0.52c-1.06.58-2,1.36-3.06,1.95a21.46,21.46,0,0,1-3.31,1.51,0.38,0.38,0,0,0,.2.74h0Z" transform="translate(-191.7 -32.91)"/><path class="cls-1" d="M261.6,452a10.66,10.66,0,0,0,2.83-.58,6.37,6.37,0,0,0,2.5-1.43,0.31,0.31,0,0,0-.37-0.48c-0.8.38-1.55,0.86-2.38,1.18a9.59,9.59,0,0,1-2.58.62c-0.43,0-.44.72,0,0.68h0Z" transform="translate(-191.7 -32.91)"/><path class="cls-1" d="M265.59,453.14a25.34,25.34,0,0,0,3.47-1.92c0.22-.17.1-0.58-0.2-0.48a25.49,25.49,0,0,0-3.64,1.76c-0.42.22,0,.86,0.38,0.64h0Z" transform="translate(-191.7 -32.91)"/><path class="cls-1" d="M270.68,453.09l1-.66a0.26,0.26,0,0,0,.1-0.31,0.25,0.25,0,0,0-.3-0.15l-1.12.41a0.44,0.44,0,0,0-.23.18,0.39,0.39,0,0,0,.54.54h0Z" transform="translate(-191.7 -32.91)"/><path class="cls-1" d="M270.91,453.16l1,0.17c0.18,0,.37.06,0.55,0.07l0.24,0a0.86,0.86,0,0,0,.3-0.06,0.31,0.31,0,0,0,.07-0.56,0.65,0.65,0,0,0-.28-0.14l-0.22,0-0.57-.08c-0.32,0-.66-0.07-1-0.12a0.39,0.39,0,0,0-.38.33,0.37,0.37,0,0,0,.28.42h0Z" transform="translate(-191.7 -32.91)"/><path class="cls-1" d="M252.85,433.88l4,6.69c1.32,2.23,2.59,4.51,4.06,6.64a0.24,0.24,0,0,0,.41-0.24c-1.17-2.31-2.56-4.52-3.88-6.74l-4-6.69a0.32,0.32,0,0,0-.56.32h0Z" transform="translate(-191.7 -32.91)"/><path class="cls-1" d="M254.06,431.63l4.57,8.36c1.52,2.79,3,5.61,4.66,8.3a0.24,0.24,0,0,0,.41-0.24c-1.38-2.85-3-5.6-4.55-8.37s-3.09-5.54-4.63-8.32a0.26,0.26,0,0,0-.45.27h0Z" transform="translate(-191.7 -32.91)"/><path class="cls-1" d="M255.79,429.31c4.68,7.25,8.8,14.77,13.12,22.23a0.27,0.27,0,0,0,.47-0.28,178.74,178.74,0,0,0-13-22.27,0.32,0.32,0,0,0-.55.32h0Z" transform="translate(-191.7 -32.91)"/><path class="cls-1" d="M262.91,430.58l5.69,10.89c1.9,3.63,3.62,7.41,5.83,10.8,0.13,0.2.52,0.07,0.42-.18-1.52-3.72-3.64-7.27-5.51-10.81s-3.88-7.38-5.82-11.06a0.35,0.35,0,0,0-.61.36h0Z" transform="translate(-191.7 -32.91)"/><path class="cls-1" d="M268.57,433.54q2,4.13,4,8.25c1.33,2.74,2.58,5.54,4.11,8.17,0.12,0.21.51,0.07,0.41-.18-1.11-2.81-2.51-5.5-3.84-8.21s-2.73-5.58-4.09-8.37c-0.18-.38-0.75,0-0.56.33h0Z" transform="translate(-191.7 -32.91)"/><path class="cls-1" d="M275.05,437.48a25,25,0,0,0,4.6,8.77,0.26,0.26,0,0,0,.41-0.31c-0.85-1.37-1.73-2.71-2.47-4.14a29.75,29.75,0,0,1-1.88-4.51,0.35,0.35,0,0,0-.66.18h0Z" transform="translate(-191.7 -32.91)"/><path class="cls-1" d="M280.67,440.81c0.72,1.61,1.37,3.26,2.24,4.79a0.25,0.25,0,0,0,.45-0.19c-0.56-1.7-1.37-3.32-2.09-5a0.36,0.36,0,1,0-.62.36h0Z" transform="translate(-191.7 -32.91)"/><path class="cls-1" d="M249.8,440.77l2.51,5.41a54.14,54.14,0,0,0,2.6,5.36,0.24,0.24,0,0,0,.44-0.18,55.66,55.66,0,0,0-2.44-5.4c-0.84-1.77-1.73-3.65-2.61-5.48-0.16-.33-0.65,0-0.49.29h0Z" transform="translate(-191.7 -32.91)"/><path class="cls-1" d="M243.64,436.31l3.28,6.57c1.1,2.2,2.12,4.42,3.35,6.54a0.25,0.25,0,0,0,.43-0.25c-1-2.25-2.13-4.41-3.23-6.6L244.18,436c-0.18-.37-0.73,0-0.54.32v0Z" transform="translate(-191.7 -32.91)"/><path class="cls-1" d="M239.71,433.2c1.81,5,3.45,10.13,5.51,15,0.11,0.27.54,0.17,0.44-.12-1.57-5.09-3.58-10.06-5.41-15.07-0.12-.34-0.67-0.19-0.55.15h0Z" transform="translate(-191.7 -32.91)"/><path class="cls-1" d="M237,435.89l2,6.59c0.68,2.2,1.31,4.42,2.11,6.57a0.23,0.23,0,0,0,.44-0.12c-0.55-2.23-1.3-4.41-2-6.61l-2.06-6.59A0.29,0.29,0,0,0,237,435.89Z" transform="translate(-191.7 -32.91)"/><path class="cls-1" d="M235.26,440.36l0.42,3.16,0.2,1.58a7.67,7.67,0,0,0,.27,1.51,0.2,0.2,0,0,0,.4-0.06,8.23,8.23,0,0,0-.14-1.58l-0.2-1.51c-0.14-1-.27-2.07-0.41-3.09,0-.34-0.58-0.34-0.54,0h0Z" transform="translate(-191.7 -32.91)"/><path class="cls-1" d="M230.16,439.77c-0.08.45-.15,0.9-0.22,1.36a0.2,0.2,0,0,0,.12.22,0.18,0.18,0,0,0,.22-0.12c0.11-.44.23-0.89,0.32-1.33a0.24,0.24,0,0,0-.16-0.29,0.24,0.24,0,0,0-.29.16h0Z" transform="translate(-191.7 -32.91)"/><path class="cls-1" d="M238.24,433.66a35.79,35.79,0,0,1-4.92,3.55c-0.83.5-1.67,1-2.54,1.43l-1.35.67a1.3,1.3,0,0,0-.59.71,4.44,4.44,0,0,0,3.11,6.13c2,0.34,4.23-.68,6.13.32a0.2,0.2,0,0,0,.2-0.34c-2.56-1.75-6.42.67-8.45-2.17a3.81,3.81,0,0,1-.42-3.87,1.6,1.6,0,0,1,.93-0.55c0.39-.17.77-0.34,1.15-0.53,0.81-.4,1.61-0.82,2.37-1.29a31,31,0,0,0,4.76-3.68,0.27,0.27,0,0,0-.38-0.38Z" transform="translate(-191.7 -32.91)"/><path class="cls-1" d="M240.38,448.31c1.73,3.16,6.2,4.89,9.43,2.91,0.24-.15.08-0.57-0.19-0.47a7.73,7.73,0,0,1-4.87.27,6.84,6.84,0,0,1-4-2.89,0.18,0.18,0,0,0-.31.18h0Z" transform="translate(-191.7 -32.91)"/><path class="cls-1" d="M262.57,453.14c3.53,1.14,7.25,2.19,11,1.13,2.89-.83,5.72-3.34,5.38-6.6a0.21,0.21,0,0,0-.42,0c-0.12,3.35-2.68,5.69-5.86,6.28s-6.74-.47-9.87-1.46a0.34,0.34,0,0,0-.18.66h0Z" transform="translate(-191.7 -32.91)"/><path class="cls-1" d="M278.89,442.38a17.54,17.54,0,0,1-5.42-6.54c-0.41-.84-0.71-1.76-1.14-2.6a0.23,0.23,0,0,0-.42.11,8.53,8.53,0,0,0,.9,2.79,18.72,18.72,0,0,0,1.53,2.59,17.45,17.45,0,0,0,4.23,4.16c0.32,0.22.62-.3,0.3-0.53h0Z" transform="translate(-191.7 -32.91)"/><path class="cls-1" d="M271.92,431.95c-1.61-.45-3.22-0.91-4.84-1.34a49.64,49.64,0,0,0-4.9-1.15,0.27,0.27,0,0,0-.15.53c1.58,0.55,3.23.9,4.85,1.3s3.27,0.75,4.91,1.11a0.23,0.23,0,0,0,.12-0.44h0Z" transform="translate(-191.7 -32.91)"/><path class="cls-1" d="M243.4,437.8a10.92,10.92,0,0,0,1.62,1.28l1.7,1.25,1.71,1.23a4.79,4.79,0,0,0,1.77,1,0.36,0.36,0,0,0,.4-0.52,4.67,4.67,0,0,0-1.54-1.33c-0.57-.41-1.15-0.79-1.73-1.19l-1.73-1.18a12.31,12.31,0,0,0-1.77-1.11,0.34,0.34,0,0,0-.42.54h0Z" transform="translate(-191.7 -32.91)"/><path class="cls-1" d="M244.82,436a21.06,21.06,0,0,0,3,3.37,21.49,21.49,0,0,0,1.77,1.4c0.3,0.21.6,0.42,0.91,0.6a2.2,2.2,0,0,0,1.1.42,0.34,0.34,0,0,0,.3-0.51,2.24,2.24,0,0,0-.79-0.7l-0.9-.61a19.83,19.83,0,0,1-1.73-1.32,22.7,22.7,0,0,1-3-3.14,0.42,0.42,0,0,0-.66.5h0Z" transform="translate(-191.7 -32.91)"/><path class="cls-1" d="M243.08,432.79a37.37,37.37,0,0,0,4.08,4.12c0.71,0.61,1.44,1.19,2.2,1.75,0.4,0.3.8,0.58,1.22,0.85a2.92,2.92,0,0,0,1.26.58,0.38,0.38,0,0,0,.33-0.58,3.14,3.14,0,0,0-1-.87c-0.37-.26-0.78-0.54-1.15-0.81-0.78-.54-1.52-1.13-2.26-1.72a44.09,44.09,0,0,1-4.13-3.85,0.39,0.39,0,0,0-.54.54v0Z" transform="translate(-191.7 -32.91)"/><path class="cls-1" d="M243.28,428.68a34.87,34.87,0,0,0,4.21,5.18,33.16,33.16,0,0,0,2.45,2.24c0.43,0.36.87,0.7,1.32,1a2.66,2.66,0,0,0,1.37.7,0.31,0.31,0,0,0,.3-0.4,2.73,2.73,0,0,0-1-1c-0.42-.33-0.85-0.66-1.26-1-0.84-.68-1.65-1.4-2.43-2.16a38.44,38.44,0,0,1-4.32-4.92c-0.27-.37-0.89,0-0.63.37h0Z" transform="translate(-191.7 -32.91)"/><path class="cls-1" d="M244.9,426.1a43.25,43.25,0,0,0,3.62,3.74c0.64,0.57,1.28,1.14,1.95,1.67a7.91,7.91,0,0,0,2.14,1.39c0.33,0.12.48-.3,0.3-0.53a11.25,11.25,0,0,0-1.85-1.64c-0.64-.52-1.32-1.09-2-1.66-1.25-1.14-2.46-2.31-3.61-3.55-0.36-.4-0.93.18-0.59,0.59h0Z" transform="translate(-191.7 -32.91)"/><path class="cls-1" d="M244.76,422.32c1.17,0.84,2.34,1.69,3.52,2.52L250,426a8.11,8.11,0,0,0,1.86,1.12,0.33,0.33,0,0,0,.32-0.54,8.45,8.45,0,0,0-1.73-1.34l-1.73-1.17c-1.19-.81-2.4-1.6-3.6-2.38-0.39-.25-0.72.35-0.36,0.61h0Z" transform="translate(-191.7 -32.91)"/><path class="cls-1" d="M246.42,415.54a9.39,9.39,0,0,0,5.15,4.1,0.29,0.29,0,0,0,.22-0.53,25.12,25.12,0,0,1-2.52-1.76,11.51,11.51,0,0,1-2.08-2.26c-0.32-.46-1.08,0-0.77.45h0Z" transform="translate(-191.7 -32.91)"/><path class="cls-1" d="M248.73,409.33c0.14,0.13.27,0.27,0.42,0.4s0.15,0.12.22,0.18l0.22,0.18a0.25,0.25,0,0,0,.18.07,0.27,0.27,0,0,0,.18-0.07,0.25,0.25,0,0,0,.07-0.18,0.27,0.27,0,0,0-.07-0.18l-0.18-.22c-0.06-.07-0.12-0.16-0.18-0.22l-0.4-.42a0.31,0.31,0,0,0-.43,0,0.32,0.32,0,0,0,0,.43h0Z" transform="translate(-191.7 -32.91)"/><path class="cls-1" d="M248.72,357.62c0.36,0.45.71,0.9,1.07,1.35a12.59,12.59,0,0,0,1.12,1.3,0.22,0.22,0,0,0,.34-0.26,12,12,0,0,0-1-1.43l-1.08-1.38a0.29,0.29,0,1,0-.42.42h0Z" transform="translate(-191.7 -32.91)"/><path class="cls-1" d="M248.69,351.1l1.49,2.06a18,18,0,0,0,1.53,2,0.2,0.2,0,0,0,.3-0.24,17.37,17.37,0,0,0-1.42-2.06l-1.48-2c-0.19-.27-0.64,0-0.44.26h0Z" transform="translate(-191.7 -32.91)"/><path class="cls-1" d="M245.71,342.6q1.54,1.65,3.08,3.29l1.51,1.59c0.26,0.27.51,0.55,0.78,0.81a2,2,0,0,0,.87.64,0.25,0.25,0,0,0,.3-0.3,1.93,1.93,0,0,0-.57-0.84c-0.25-.28-0.52-0.54-0.78-0.81l-1.57-1.62c-1-1.08-2.1-2.14-3.16-3.21a0.33,0.33,0,0,0-.47.47h0Z" transform="translate(-191.7 -32.91)"/><path class="cls-1" d="M244.64,333.7c1.07,1.34,2.13,2.69,3.22,4l1.57,1.94,0.83,1a3.3,3.3,0,0,0,.89.87,0.3,0.3,0,0,0,.43-0.33,3.17,3.17,0,0,0-.64-1c-0.25-.31-0.53-0.64-0.79-1l-1.69-2c-1.11-1.34-2.24-2.66-3.36-4-0.27-.32-0.71.14-0.46,0.46h0Z" transform="translate(-191.7 -32.91)"/><path class="cls-1" d="M244.14,328c1.42,1.34,2.84,2.69,4.28,4l2.12,2c0.34,0.31.69,0.64,1,.94a1.88,1.88,0,0,0,1.14.66,0.3,0.3,0,0,0,.3-0.3,1.61,1.61,0,0,0-.68-1c-0.34-.32-0.69-0.64-1-1l-2.23-2c-1.47-1.3-3-2.58-4.43-3.86a0.36,0.36,0,0,0-.51.51h0Z" transform="translate(-191.7 -32.91)"/><path class="cls-1" d="M244.69,324c1.15,1.17,2.31,2.35,3.48,3.5l1.71,1.69c0.3,0.3.6,0.6,0.91,0.88a1.18,1.18,0,0,0,1,.49,0.37,0.37,0,0,0,.26-0.26,1.06,1.06,0,0,0-.46-0.93c-0.29-.3-0.6-0.59-0.9-0.89l-1.8-1.69c-1.2-1.13-2.42-2.23-3.63-3.34a0.4,0.4,0,0,0-.56.56h0Z" transform="translate(-191.7 -32.91)"/><path class="cls-1" d="M243.36,318.81c1.42,1.35,2.83,2.7,4.27,4l2.12,2,1,1a1.76,1.76,0,0,0,1.16.66,0.32,0.32,0,0,0,.31-0.31,1.61,1.61,0,0,0-.67-1c-0.34-.32-0.69-0.64-1-1l-2.21-2c-1.46-1.31-2.92-2.61-4.39-3.91a0.42,0.42,0,0,0-.59.59h0Z" transform="translate(-191.7 -32.91)"/><path class="cls-1" d="M244.16,315.84l4,3.48c0.66,0.57,1.32,1.14,2,1.7l1,0.85a2.09,2.09,0,0,0,1.12.61,0.43,0.43,0,0,0,.42-0.54,2.07,2.07,0,0,0-.78-0.94l-1-.83c-0.67-.55-1.34-1.12-2-1.65l-4.08-3.27c-0.42-.34-1,0.24-0.61.61h0Z" transform="translate(-191.7 -32.91)"/><path class="cls-1" d="M244.42,312.26a28.26,28.26,0,0,1,4.18,2.81,23.66,23.66,0,0,1,1.85,1.63l0.9,0.9a1.76,1.76,0,0,0,1.1.69,0.48,0.48,0,0,0,.48-0.48,1.66,1.66,0,0,0-.65-1.15c-0.3-.3-0.6-0.6-0.9-0.88-0.65-.59-1.33-1.14-2-1.67a24.64,24.64,0,0,0-4.47-2.61c-0.51-.23-1,0.49-0.45.77h0Z" transform="translate(-191.7 -32.91)"/><path class="cls-1" d="M244.16,309.56a36.45,36.45,0,0,1,4.13,2.89c0.64,0.52,1.26,1,1.85,1.61l0.94,0.89a2,2,0,0,0,1.07.65,0.47,0.47,0,0,0,.46-0.46,1.8,1.8,0,0,0-.64-1.08c-0.3-.32-0.62-0.61-0.94-0.9q-1-.87-2-1.66a27.75,27.75,0,0,0-4.41-2.71,0.46,0.46,0,0,0-.46.79h0Z" transform="translate(-191.7 -32.91)"/><path class="cls-1" d="M245.46,308.84a36.08,36.08,0,0,1,3.68,2.3c0.56,0.4,1.11.81,1.64,1.24s1.14,1,1.77,1.45,1.53-.85.71-1.22a6.13,6.13,0,0,0-.71-0.31,0.43,0.43,0,0,0-.52.52,4.36,4.36,0,0,0,.18.59l1.18-.68a11.61,11.61,0,0,0-1.72-1.42c-0.58-.44-1.21-0.87-1.84-1.27a30.75,30.75,0,0,0-3.88-2.1c-0.61-.28-1.15.59-0.54,0.92h0Z" transform="translate(-191.7 -32.91)"/><path class="cls-1" d="M247.26,307.65l2,1.7c0.33,0.28.66,0.55,1,.82a8.43,8.43,0,0,0,1.12.87,0.61,0.61,0,0,0,.82-0.82l-0.12-.17c0.06,0.07.06,0.07,0,0a0.75,0.75,0,0,0-.16-0.28,0.35,0.35,0,0,0-.48,0,0.75,0.75,0,0,0-.16.22,0.46,0.46,0,0,0,0,.12c0-.06,0-0.06,0,0h0.85a8.17,8.17,0,0,0-1.08-.86l-1.07-.8-2.12-1.55a0.49,0.49,0,0,0-.59.77h0Z" transform="translate(-191.7 -32.91)"/><path class="cls-1" d="M248.82,306.68a4.87,4.87,0,0,1,1,.37,4.33,4.33,0,0,1,.5.28l0.27,0.18,0.09,0.06s0.14,0.1.06,0.06a7.46,7.46,0,0,1,.83.78l0.42,0.42a2.24,2.24,0,0,0,.48.41,0.37,0.37,0,0,0,.55-0.31,1.67,1.67,0,0,0-.2-0.69,2.91,2.91,0,0,0-.39-0.6,5.47,5.47,0,0,0-1-.89,6.1,6.1,0,0,0-2.39-1,0.48,0.48,0,0,0-.25.93v0Z" transform="translate(-191.7 -32.91)"/><path class="cls-1" d="M284,148.36l-2.36.6a17,17,0,0,0-2.34.66c-0.18.07-.18,0.39,0,0.37a17.78,17.78,0,0,0,2.39-.52l2.41-.61a0.26,0.26,0,0,0-.14-0.51h0Z" transform="translate(-191.7 -32.91)"/><path class="cls-1" d="M276.12,152.48a41,41,0,0,1-8.34,6.75A15.63,15.63,0,0,1,263.1,161a45.64,45.64,0,0,1-6.05.26,9.36,9.36,0,0,0-7.31,3.85,19.79,19.79,0,0,0-3.3,9.71,0.2,0.2,0,0,0,.4.06c1-3.49,1.33-7.09,3.75-10a8.47,8.47,0,0,1,4.09-2.82c1.93-.55,4-0.32,6-0.37,6.51-.15,11.39-4.59,15.8-8.9a0.22,0.22,0,0,0-.3-0.3h0Z" transform="translate(-191.7 -32.91)"/><path class="cls-1" d="M247.47,185.41a6,6,0,0,0-4,6.78,5.89,5.89,0,0,0,6.69,4.26c0.21,0,.12-0.34-0.08-0.31a5.49,5.49,0,0,1-6.08-4.08,5.37,5.37,0,0,1,3.62-6.19,0.23,0.23,0,0,0-.12-0.44h0Z" transform="translate(-191.7 -32.91)"/><path class="cls-1" d="M255.1,201.76a10.2,10.2,0,0,0,1.25,6.38,0.16,0.16,0,0,0,.27-0.16,10.41,10.41,0,0,1-1.15-6.22C255.49,201.53,255.13,201.53,255.1,201.76Z" transform="translate(-191.7 -32.91)"/><path class="cls-1" d="M257.11,213.71c-2.08,1.26-1.62,4.07.06,5.45,2.6,2.13,6.59,1.43,9.67,2.21,7,1.75,12.47,6.77,17.79,11.38a0.16,0.16,0,0,0,.22-0.22c-4.27-4-8.89-8-14.33-10.33a25.17,25.17,0,0,0-8.14-1.87c-1.8-.14-3.78-0.37-5.16-1.67s-1.6-3.54.11-4.57a0.21,0.21,0,0,0-.21-0.36h0Z" transform="translate(-191.7 -32.91)"/><path class="cls-1" d="M247.47,187.1q1.67,1.68,3.36,3.34a42.41,42.41,0,0,0,3.43,3.27,0.25,0.25,0,0,0,.36-0.36,37,37,0,0,0-3.28-3.42c-1.12-1.1-2.24-2.23-3.36-3.34a0.36,0.36,0,0,0-.51.51h0Z" transform="translate(-191.7 -32.91)"/><path class="cls-1" d="M247.14,182.69l5.51,6.33c1.84,2.11,3.56,4.35,5.58,6.25a0.27,0.27,0,0,0,.42-0.33c-1.61-2.24-3.6-4.25-5.43-6.33l-5.62-6.38c-0.28-.31-0.74.15-0.46,0.46h0Z" transform="translate(-191.7 -32.91)"/><path class="cls-1" d="M244.54,176.25c2.8,3.54,5.67,7,8.65,10.43a93.05,93.05,0,0,0,9.25,9.88,0.25,0.25,0,0,0,.35-0.35c-2.77-3.55-6.08-6.7-9.06-10.07s-5.92-6.81-8.79-10.3c-0.23-.29-0.63.12-0.41,0.41h0Z" transform="translate(-191.7 -32.91)"/><path class="cls-1" d="M244.51,171.14q5.43,5.43,10.55,11.14c1.66,1.85,3.3,3.72,4.92,5.6a56.65,56.65,0,0,0,5.17,5.94,0.27,0.27,0,0,0,.42-0.32,37.27,37.27,0,0,0-4.54-5.75q-2.56-3-5.22-5.91-5.26-5.73-10.87-11.13a0.3,0.3,0,0,0-.42.42h0Z" transform="translate(-191.7 -32.91)"/><path class="cls-1" d="M247.29,168.36c2.93,3.31,5.9,6.61,9,9.8q2.24,2.33,4.54,4.6a38.35,38.35,0,0,0,4.81,4.44c0.31,0.21.56-.23,0.37-0.48a48.51,48.51,0,0,0-4.55-4.59c-1.52-1.49-3.15-3.11-4.7-4.7-3.05-3.12-6.09-6.26-9-9.49-0.26-.29-0.67.14-0.42,0.42h0Z" transform="translate(-191.7 -32.91)"/><path class="cls-1" d="M250.73,164.51c1.88,2.06,3.76,4.13,5.66,6.17s3.73,4.17,5.81,6c0.22,0.19.63-.07,0.43-0.33-1.69-2.2-3.68-4.16-5.57-6.18s-3.9-4.1-5.85-6.14a0.33,0.33,0,0,0-.47.47h0Z" transform="translate(-191.7 -32.91)"/><path class="cls-1" d="M254.31,163.7c1.83,2.11,3.61,4.27,5.56,6.26,0.21,0.22.64-.08,0.44-0.34-1.72-2.23-3.62-4.33-5.47-6.45-0.32-.36-0.84.17-0.53,0.53h0Z" transform="translate(-191.7 -32.91)"/><path class="cls-1" d="M266.11,188.31q2.53,1.72,5.08,3.42a45.37,45.37,0,0,0,5.17,3.27c0.3,0.14.66-.24,0.37-0.48a47.09,47.09,0,0,0-5-3.47c-1.69-1.11-3.48-2.26-5.22-3.39C266.08,187.38,265.71,188,266.11,188.31Z" transform="translate(-191.7 -32.91)"/><path class="cls-1" d="M266.45,181.12c2,1.82,4,3.65,6,5.45l2.94,2.67a15.25,15.25,0,0,0,3,2.53,0.32,0.32,0,0,0,.43-0.43,15,15,0,0,0-2.73-2.67L273,185.93c-2-1.79-4-3.57-6-5.36a0.38,0.38,0,0,0-.54.54h0Z" transform="translate(-191.7 -32.91)"/><path class="cls-1" d="M265.7,177.14l6.69,6.51,3.28,3.14,1.73,1.66a8.42,8.42,0,0,0,1.72,1.42,0.35,0.35,0,0,0,.47-0.47,7.71,7.71,0,0,0-1.41-1.54l-1.75-1.64c-1.13-1.06-2.26-2.13-3.4-3.19-2.28-2.11-4.58-4.23-6.86-6.33a0.33,0.33,0,0,0-.46.46h0Z" transform="translate(-191.7 -32.91)"/><path class="cls-1" d="M262.21,169.58c2.48,2.38,5,4.77,7.45,7.15q1.81,1.73,3.64,3.45a23.84,23.84,0,0,0,3.88,3.33,0.33,0.33,0,0,0,.44-0.44,23.64,23.64,0,0,0-3.46-3.54c-1.25-1.17-2.53-2.34-3.8-3.5q-3.81-3.5-7.63-7a0.37,0.37,0,0,0-.53.53h0Z" transform="translate(-191.7 -32.91)"/><path class="cls-1" d="M262.6,165.25l7.29,7.11c1.2,1.17,2.41,2.33,3.62,3.48a20.49,20.49,0,0,0,3.74,3.29,0.36,0.36,0,0,0,.49-0.49,19.53,19.53,0,0,0-3.34-3.48c-1.25-1.18-2.5-2.37-3.76-3.55l-7.45-6.94A0.41,0.41,0,0,0,262.6,165.25Z" transform="translate(-191.7 -32.91)"/><path class="cls-1" d="M264.42,161.07c2.7,2.27,5.29,4.69,7.81,7.17q1.87,1.84,3.65,3.75a26.37,26.37,0,0,0,3.66,3.66c0.3,0.22.64-.19,0.48-0.48a18.91,18.91,0,0,0-3.21-3.92q-1.85-2-3.77-3.81c-2.54-2.47-5.22-4.77-8-7-0.46-.37-1.12.27-0.66,0.66h0Z" transform="translate(-191.7 -32.91)"/><path class="cls-1" d="M268.82,159c2,1.84,3.9,3.7,5.88,5.52l2.92,2.7a13.43,13.43,0,0,0,3.08,2.52,0.42,0.42,0,0,0,.56-0.56,12.65,12.65,0,0,0-2.7-2.73l-3.05-2.72c-2-1.79-4.05-3.55-6.08-5.33a0.43,0.43,0,0,0-.61.61h0Z" transform="translate(-191.7 -32.91)"/><path class="cls-1" d="M272,157.19a60.14,60.14,0,0,1,5.57,4.34c0.86,0.75,1.69,1.51,2.5,2.31l1.27,1.27a4.79,4.79,0,0,0,1.33,1.09,0.38,0.38,0,0,0,.55-0.42,8.2,8.2,0,0,0-2.19-2.63c-0.89-.86-1.8-1.68-2.74-2.47a54,54,0,0,0-5.85-4.25c-0.49-.31-0.92.45-0.45,0.78h0Z" transform="translate(-191.7 -32.91)"/><path class="cls-1" d="M278.59,155.17l3.82,3.29c0.62,0.54,1.23,1.07,1.85,1.59,0.32,0.27.65,0.54,1,.79a3.12,3.12,0,0,0,1.1.64,0.38,0.38,0,0,0,.42-0.55,5.74,5.74,0,0,0-1.66-1.71c-0.64-.54-1.29-1.07-1.95-1.61l-3.84-3.16c-0.51-.42-1.25.3-0.74,0.74v0Z" transform="translate(-191.7 -32.91)"/><path class="cls-1" d="M282.87,151.28l2.6,2.47,1.29,1.21a5.16,5.16,0,0,0,1.48,1.08c0.34,0.14.57-.3,0.44-0.57a5.19,5.19,0,0,0-1.17-1.33c-0.42-.39-0.87-0.79-1.31-1.19l-2.63-2.37a0.5,0.5,0,0,0-.71.71h0Z" transform="translate(-191.7 -32.91)"/><path class="cls-1" d="M290.35,146.49a0.34,0.34,0,0,0,0-.68A0.34,0.34,0,0,0,290.35,146.49Z" transform="translate(-191.7 -32.91)"/><path class="cls-1" d="M290.38,124.51a17.49,17.49,0,0,1-8.45-8.45,0.21,0.21,0,0,0-.38.16,15,15,0,0,0,8.62,8.81A0.28,0.28,0,0,0,290.38,124.51Z" transform="translate(-191.7 -32.91)"/><path class="cls-1" d="M283.05,108.77l-1.18-.78a10.08,10.08,0,0,0-1.21-.74,0.22,0.22,0,0,0-.28.06,0.21,0.21,0,0,0,0,.28,9.82,9.82,0,0,0,1.18.85l1.21,0.79a0.26,0.26,0,0,0,.27-0.45h0Z" transform="translate(-191.7 -32.91)"/><path class="cls-1" d="M275,103.06a16.8,16.8,0,0,1-8-5.45,16.53,16.53,0,0,1-3.77-9,0.22,0.22,0,0,0-.43,0,16.47,16.47,0,0,0,3.53,9.49,16.2,16.2,0,0,0,8.48,5.58,0.3,0.3,0,0,0,.16-0.58h0Z" transform="translate(-191.7 -32.91)"/><path class="cls-1" d="M263.68,83.45a63.49,63.49,0,0,0,1.13,6.7c0.26,1.14.54,2.25,0.87,3.37a16.07,16.07,0,0,0,1.07,3.13,0.28,0.28,0,0,0,.51-0.21,30.53,30.53,0,0,0-.93-3.09q-0.47-1.61-.86-3.24a60,60,0,0,1-1.17-6.65c0-.38-0.65-0.39-0.61,0h0Z" transform="translate(-191.7 -32.91)"/><path class="cls-1" d="M266.37,84.23a76.34,76.34,0,0,0,1.58,8.51c0.34,1.39.72,2.76,1.13,4.12a11.5,11.5,0,0,0,1.49,3.85,0.29,0.29,0,0,0,.49-0.2,6.2,6.2,0,0,0-.48-1.85c-0.22-.67-0.45-1.35-0.66-2-0.42-1.36-.81-2.73-1.16-4.11a74,74,0,0,1-1.61-8.39C267.09,83.7,266.31,83.79,266.37,84.23Z" transform="translate(-191.7 -32.91)"/><path class="cls-1" d="M269.11,87a65.66,65.66,0,0,0,1.46,8.77,35,35,0,0,0,2.82,8.39,0.26,0.26,0,0,0,.47-0.2c-0.69-2.79-1.71-5.48-2.4-8.27A70.38,70.38,0,0,1,269.88,87c-0.06-.48-0.81-0.49-0.77,0h0Z" transform="translate(-191.7 -32.91)"/><path class="cls-1" d="M272.24,87.79a68.47,68.47,0,0,0,1.38,10.33,43,43,0,0,0,3.07,9.94,0.3,0.3,0,0,0,.54-0.23c-0.88-3.27-2-6.44-2.76-9.74A75.29,75.29,0,0,1,273,87.8c0-.45-0.74-0.46-0.71,0h0Z" transform="translate(-191.7 -32.91)"/><path class="cls-1" d="M276.95,91.06q1.15,5.24,2.31,10.46c0.78,3.48,1.44,7,2.47,10.42a0.26,0.26,0,0,0,.51-0.14c-0.52-3.53-1.41-7-2.2-10.5s-1.58-7-2.36-10.45a0.38,0.38,0,0,0-.73.2h0Z" transform="translate(-191.7 -32.91)"/><path class="cls-1" d="M280.65,91a173.19,173.19,0,0,0,4,25.66,0.26,0.26,0,0,0,.5-0.14c-1.43-8.5-3-16.93-3.79-25.52,0-.45-0.75-0.45-0.71,0h0Z" transform="translate(-191.7 -32.91)"/><path class="cls-1" d="M285.11,94.9q0.82,6.62,1.62,13.24c0.54,4.41.86,8.64,1.68,12.86a0.32,0.32,0,0,0,.63-0.08c-0.22-4.34-1-8.71-1.51-13s-1.07-8.67-1.61-13C285.86,94.38,285,94.38,285.11,94.9Z" transform="translate(-191.7 -32.91)"/><path class="cls-1" d="M288.76,98.83a57.31,57.31,0,0,0,.81,9.32,33,33,0,0,0,2.48,9c0.14,0.3.56,0.08,0.5-.21-0.63-3-1.61-5.83-2.14-8.82a56,56,0,0,1-.84-9.26,0.41,0.41,0,0,0-.81,0h0Z" transform="translate(-191.7 -32.91)"/><path class="cls-1" d="M292,99.23a61.06,61.06,0,0,0,.89,8.7,37.26,37.26,0,0,0,2.21,8.44c0.13,0.3.56,0.07,0.5-.21-0.6-2.77-1.47-5.47-2-8.26a65.26,65.26,0,0,1-1-8.66,0.33,0.33,0,0,0-.66,0h0Z" transform="translate(-191.7 -32.91)"/><path class="cls-1" d="M296.22,104c0.27,2.53.48,5.06,1,7.55a0.25,0.25,0,0,0,.49-0.06c-0.06-2.51-.38-5-0.65-7.49C297,103.46,296.16,103.45,296.22,104Z" transform="translate(-191.7 -32.91)"/><path class="cls-1" d="M289.74,129.31c1,1.49,1.93,3,2.92,4.46l1.48,2.22c0.25,0.37.49,0.74,0.75,1.11a1.8,1.8,0,0,0,.78.76,0.3,0.3,0,0,0,.38-0.29,1.92,1.92,0,0,0-.47-1.05l-0.75-1.11-1.46-2.13c-1-1.45-2-2.88-3-4.31a0.35,0.35,0,0,0-.61.36h0Z" transform="translate(-191.7 -32.91)"/><path class="cls-1" d="M291.81,125.14c0.72,1.65,1.43,3.31,2.17,4.95l1.08,2.42a4.79,4.79,0,0,0,1.25,2.16,0.29,0.29,0,0,0,.42-0.18,4.85,4.85,0,0,0-.79-2.4l-1.09-2.42c-0.75-1.66-1.52-3.32-2.29-5-0.23-.51-1-0.06-0.75.43v0Z" transform="translate(-191.7 -32.91)"/><path class="cls-1" d="M291.79,121.61c0.7,1.45,1.38,2.91,2.09,4.36l1.07,2.17a18.72,18.72,0,0,0,1.13,2.13,0.49,0.49,0,0,0,.89-0.12,1.78,1.78,0,0,0-.51-1.92,0.29,0.29,0,0,0-.41.41,0.91,0.91,0,0,1,0,1.14L297,129.9a18.18,18.18,0,0,0-1-2.14l-1.13-2.23c-0.75-1.46-1.52-2.9-2.28-4.35-0.26-.5-1-0.06-0.75.43h0Z" transform="translate(-191.7 -32.91)"/><path class="cls-1" d="M292.41,118.23a31.47,31.47,0,0,0,2.06,4.46c0.4,0.7.81,1.39,1.26,2,0.23,0.34.46,0.67,0.72,1a4.12,4.12,0,0,0,.92.82,0.29,0.29,0,0,0,.42-0.32,4.78,4.78,0,0,0-.47-1c-0.21-.3-0.44-0.64-0.67-1-0.46-.66-0.9-1.33-1.31-2a33.55,33.55,0,0,1-2.17-4.26c-0.18-.45-0.93-0.27-0.75.2h0Z" transform="translate(-191.7 -32.91)"/><path class="cls-1" d="M294.22,115.52a32.43,32.43,0,0,0,1.82,4.65,19.61,19.61,0,0,0,2.58,4.28,0.58,0.58,0,0,0,.69.09,1,1,0,0,0,.31-1.51,0.37,0.37,0,0,0-.62.26c0,0.15,0,.18-0.14.2l0.65,0.26c-0.41-.71-0.89-1.38-1.33-2.08s-0.78-1.33-1.13-2a33.18,33.18,0,0,1-1.9-4.4,0.49,0.49,0,0,0-.94.26h0Z" transform="translate(-191.7 -32.91)"/><path class="cls-1" d="M295.8,113.3l2.06,3.37c0.33,0.54.66,1.09,1,1.63a3.7,3.7,0,0,0,1.25,1.51,0.31,0.31,0,0,0,.46-0.27,3.53,3.53,0,0,0-.82-1.76l-1.05-1.6-2.19-3.3a0.41,0.41,0,0,0-.71.42h0Z" transform="translate(-191.7 -32.91)"/><path class="cls-1" d="M299,109.72c0.52,1.21,1,2.43,1.56,3.64l0.79,1.81a4.38,4.38,0,0,0,1,1.66,0.37,0.37,0,0,0,.62-0.26,4.23,4.23,0,0,0-.59-1.82l-0.84-1.87c-0.55-1.22-1.12-2.44-1.68-3.65-0.26-.55-1-0.07-0.81.47h0Z" transform="translate(-191.7 -32.91)"/><path class="cls-1" d="M301,108.9l0.78,1.82a6.6,6.6,0,0,0,1,1.73,0.29,0.29,0,0,0,.36,0,0.32,0.32,0,0,0,.14-0.33,7,7,0,0,0-.66-1.89c-0.28-.61-0.55-1.19-0.82-1.79a0.43,0.43,0,0,0-.58-0.16,0.44,0.44,0,0,0-.16.58h0Z" transform="translate(-191.7 -32.91)"/><path class="cls-1" d="M257.79,81.65a6.64,6.64,0,0,1-2.49-2A8.76,8.76,0,0,1,254,76.69a0.21,0.21,0,0,0-.42.06,6.68,6.68,0,0,0,3.93,5.45c0.36,0.17.68-.37,0.31-0.54h0Z" transform="translate(-191.7 -32.91)"/><path class="cls-1" d="M253.28,72.94a7.57,7.57,0,0,1-6.44-3.11,18.15,18.15,0,0,1-1.15-2.18,0.22,0.22,0,0,0-.42.11,5,5,0,0,0,1,2.44,8.17,8.17,0,0,0,1.88,1.86,7.49,7.49,0,0,0,5.09,1.38c0.31,0,.32-0.52,0-0.5h0Z" transform="translate(-191.7 -32.91)"/><path class="cls-1" d="M248.33,68.62l0.78,1.77a12.15,12.15,0,0,0,.84,1.75,0.24,0.24,0,0,0,.43-0.18,12.07,12.07,0,0,0-.75-1.83l-0.8-1.81a0.29,0.29,0,0,0-.41-0.1,0.3,0.3,0,0,0-.1.41h0Z" transform="translate(-191.7 -32.91)"/><path class="cls-1" d="M249.29,65.77l1.71,4a35.93,35.93,0,0,0,1.81,3.92,0.24,0.24,0,0,0,.44-0.18,36.7,36.7,0,0,0-1.66-4c-0.58-1.31-1.2-2.68-1.8-4-0.16-.34-0.65,0-0.51.3h0Z" transform="translate(-191.7 -32.91)"/><path class="cls-1" d="M251.83,65q0.76,3.66,1.53,7.3c0.52,2.43.93,4.9,1.66,7.28,0.08,0.28.56,0.24,0.53-.07-0.31-2.44-1-4.85-1.48-7.25s-1.1-4.95-1.65-7.42c-0.08-.39-0.68-0.22-0.6.17h0Z" transform="translate(-191.7 -32.91)"/><path class="cls-1" d="M254.61,65.7a72.09,72.09,0,0,0,1.67,9.72,42.57,42.57,0,0,0,3.1,9.34,0.24,0.24,0,0,0,.43-0.18c-0.85-3.08-2-6.07-2.8-9.18a79.35,79.35,0,0,1-1.8-9.7c0-.39-0.66-0.4-0.61,0h0Z" transform="translate(-191.7 -32.91)"/><path class="cls-1" d="M255.82,64.59c0.72,3,1.43,5.91,2.15,8.86L259,77.8A23.45,23.45,0,0,0,260.16,82a0.25,0.25,0,0,0,.46-0.13,21.69,21.69,0,0,0-.89-4.1c-0.37-1.51-.75-3-1.12-4.51l-2.19-8.85a0.32,0.32,0,0,0-.62.17h0Z" transform="translate(-191.7 -32.91)"/><path class="cls-1" d="M258.07,64.91a62.24,62.24,0,0,0,1.18,6.9,29.52,29.52,0,0,0,2.09,6.65,0.28,0.28,0,0,0,.52-0.22c-0.5-2.2-1.31-4.32-1.84-6.52a61.16,61.16,0,0,1-1.22-6.81c-0.06-.47-0.79-0.48-0.74,0h0Z" transform="translate(-191.7 -32.91)"/><path class="cls-1" d="M259.24,65.41l1.63,4.88,0.78,2.35a11.53,11.53,0,0,0,.91,2.39,0.28,0.28,0,0,0,.53-0.14,11.42,11.42,0,0,0-.71-2.45l-0.8-2.35c-0.55-1.63-1.12-3.25-1.67-4.87-0.15-.42-0.83-0.25-0.68.18h0Z" transform="translate(-191.7 -32.91)"/><path class="cls-1" d="M261.25,65.4c0.19,0.54.39,1.07,0.6,1.61s0.46,1.06.72,1.57A0.23,0.23,0,0,0,263,68.4c-0.14-.54-0.3-1.08-0.48-1.61s-0.39-1.05-.59-1.58a0.34,0.34,0,1,0-.66.18h0Z" transform="translate(-191.7 -32.91)"/><path class="cls-1" d="M271.24,117l-6.74,3.08c-2.24,1-4.54,2-6.66,3.2a0.21,0.21,0,0,0,.17.39c2.3-.81,4.5-1.95,6.71-3l6.83-3.18c0.36-.17,0-0.69-0.31-0.53h0Z" transform="translate(-191.7 -32.91)"/><path class="cls-1" d="M257.08,127.6c3.37,4.95,3.32,12.23-.79,16.76a0.24,0.24,0,0,0,0,.33c3.74,3.55,10.73,3.65,14.37-.12a0.21,0.21,0,0,0-.3-0.3,10.78,10.78,0,0,1-13.74.07v0.33c3.82-4.94,4.49-12.09.9-17.34-0.18-.27-0.62,0-0.43.26h0Z" transform="translate(-191.7 -32.91)"/><path class="cls-1" d="M257.37,138.14l4.09,4.77c1.37,1.59,2.68,3.22,4.13,4.73,0.17,0.18.5-.06,0.34-0.27-1.26-1.65-2.67-3.2-4-4.78l-4.16-4.83c-0.22-.26-0.59.12-0.37,0.37h0Z" transform="translate(-191.7 -32.91)"/><path class="cls-1" d="M260.62,133.2a24.53,24.53,0,0,0,3,7.46,24.08,24.08,0,0,0,2.29,3.18,12.53,12.53,0,0,0,2.91,2.72,0.22,0.22,0,0,0,.26-0.34c-0.83-1-1.8-1.8-2.63-2.78a25.32,25.32,0,0,1-2.32-3.2,23.83,23.83,0,0,1-2.89-7.2,0.3,0.3,0,0,0-.58.16h0Z" transform="translate(-191.7 -32.91)"/><path class="cls-1" d="M260.66,127.93l5,8.25c1.66,2.75,3.23,5.58,5.1,8.17a0.27,0.27,0,0,0,.46-0.27c-1.44-2.86-3.24-5.56-4.91-8.29l-5-8.22a0.35,0.35,0,0,0-.61.36h0Z" transform="translate(-191.7 -32.91)"/><path class="cls-1" d="M261.31,124.75a78.29,78.29,0,0,1,5.71,6.4c1.79,2.23,3.29,4.66,5,6.91,0.2,0.26.56-.07,0.43-0.33a41.62,41.62,0,0,0-4.87-7,74.61,74.61,0,0,0-5.83-6.44,0.34,0.34,0,0,0-.48.48h0Z" transform="translate(-191.7 -32.91)"/><path class="cls-1" d="M265.22,121.89l4.95,6.66,2.47,3.32a32.2,32.2,0,0,0,2.46,3.1,0.25,0.25,0,0,0,.39-0.3,37.15,37.15,0,0,0-2.38-3.38c-0.82-1.11-1.61-2.14-2.41-3.21l-4.9-6.53c-0.25-.33-0.82,0-0.56.33h0Z" transform="translate(-191.7 -32.91)"/><path class="cls-1" d="M269.61,120l2.76,3.16a32.07,32.07,0,0,0,2.82,3.08,0.27,0.27,0,0,0,.42-0.33,32,32,0,0,0-2.69-3.23l-2.8-3.2c-0.31-.35-0.82.17-0.52,0.52h0Z" transform="translate(-191.7 -32.91)"/><path class="cls-1" d="M275.44,120.32c0.2,0.32.4,0.66,0.61,1l0.3,0.47c0.1,0.16.23,0.31,0.35,0.47a0.25,0.25,0,0,0,.33.08,0.24,0.24,0,0,0,.08-0.33c-0.08-.18-0.17-0.36-0.26-0.53l-0.28-.49L276,120a0.32,0.32,0,1,0-.56.32h0Z" transform="translate(-191.7 -32.91)"/><path class="cls-1" d="M258.88,194.51a72.78,72.78,0,0,1-1.34,8.68c-0.3,1.37-.64,2.72-1,4.07a35.65,35.65,0,0,0-1.21,4.18,0.23,0.23,0,0,0,.42.18,17.94,17.94,0,0,0,1.4-4c0.42-1.45.77-2.91,1.09-4.39a67.39,67.39,0,0,0,1.25-8.7c0-.38-0.55-0.38-0.59,0h0Z" transform="translate(-191.7 -32.91)"/><path class="cls-1" d="M264.11,191.41q-2.1,5.82-4.2,11.63l-2,5.6a42.28,42.28,0,0,0-2.08,6.06,0.25,0.25,0,0,0,.45.19,40.24,40.24,0,0,0,2.12-5.64c0.66-1.86,1.37-3.89,2.07-5.83q2.1-5.93,4.22-11.87c0.13-.35-0.43-0.5-0.55-0.16h0Z" transform="translate(-191.7 -32.91)"/><path class="cls-1" d="M265.86,193.1a119,119,0,0,0-4,12.66,68.91,68.91,0,0,0-2.38,12.69l0.55-.07,0-.3a0.23,0.23,0,0,0-.44,0l-0.06.3c-0.06.35,0.46,0.51,0.54,0.15,1-4.24,1.52-8.56,2.56-12.79s2.3-8.39,3.74-12.49c0.12-.33-0.4-0.47-0.53-0.15h0Z" transform="translate(-191.7 -32.91)"/><path class="cls-1" d="M267.88,197.35A76.86,76.86,0,0,0,264.1,207a47.6,47.6,0,0,0-2.35,10.1,0.31,0.31,0,0,0,.6.08c0.42-1.63.66-3.31,1-4.94s0.82-3.27,1.32-4.88a76.07,76.07,0,0,1,3.72-9.7c0.18-.38-0.39-0.71-0.56-0.33h0Z" transform="translate(-191.7 -32.91)"/><path class="cls-1" d="M269,202.71l-2.35,8.14c-0.39,1.33-.77,2.67-1.15,4a32.29,32.29,0,0,0-1.09,4.18c0,0.22.3,0.42,0.41,0.17a33.41,33.41,0,0,0,1.26-4l1.13-4c0.78-2.77,1.58-5.54,2.36-8.31a0.3,0.3,0,0,0-.58-0.16h0Z" transform="translate(-191.7 -32.91)"/><path class="cls-1" d="M271,193.84l-0.33,4.07-0.17,2a6.52,6.52,0,0,0,0,1.94,0.23,0.23,0,0,0,.44,0,6.83,6.83,0,0,0,.27-1.94l0.17-2,0.33-4.07C271.73,193.4,271.05,193.4,271,193.84Z" transform="translate(-191.7 -32.91)"/><path class="cls-1" d="M274,191.07c-0.41,2.71-.82,5.42-1.23,8.13-0.2,1.36-.4,2.71-0.6,4.07a30.19,30.19,0,0,0-.47,3.86,0.27,0.27,0,0,0,.54.07,31.68,31.68,0,0,0,.69-4c0.2-1.34.39-2.61,0.57-3.92,0.39-2.66.76-5.33,1.14-8,0.06-.42-0.58-0.61-0.65-0.18h0Z" transform="translate(-191.7 -32.91)"/><path class="cls-1" d="M276.89,190.38q-1.22,7.19-2.44,14.39c-0.41,2.4-.82,4.79-1.22,7.19a41.16,41.16,0,0,0-1,6.85,0.26,0.26,0,0,0,.51.06,44.26,44.26,0,0,0,1.38-7.15c0.41-2.34.78-4.64,1.18-7q1.2-7.08,2.4-14.16c0.09-.54-0.72-0.76-0.81-0.22h0Z" transform="translate(-191.7 -32.91)"/><path class="cls-1" d="M280.84,192.43l-3.35,15.37c-0.55,2.52-1.1,5.05-1.64,7.57a65.55,65.55,0,0,0-1.48,7.47c0,0.36.49,0.39,0.59,0.08a67.8,67.8,0,0,0,1.76-7.54c0.54-2.49,1.09-5.05,1.63-7.58q1.62-7.58,3.25-15.16c0.11-.5-0.66-0.71-0.77-0.21h0Z" transform="translate(-191.7 -32.91)"/><path class="cls-1" d="M281.87,197q-1.23,6.86-2.45,13.71c-0.41,2.25-.79,4.5-1.19,6.75a39.13,39.13,0,0,0-1,6.65,0.29,0.29,0,0,0,.56.07,39.94,39.94,0,0,0,1.35-6.7c0.39-2.21.8-4.5,1.19-6.75q1.18-6.76,2.34-13.51C282.77,196.73,282,196.5,281.87,197Z" transform="translate(-191.7 -32.91)"/><path class="cls-1" d="M284,202.39a104.75,104.75,0,0,0-2.85,12.45q-0.47,2.88-.79,5.79a25.1,25.1,0,0,0-.32,6.22,0.29,0.29,0,0,0,.55,0,39.07,39.07,0,0,0,.58-5.79c0.22-2.15.51-4.3,0.86-6.44a105,105,0,0,1,2.75-12,0.41,0.41,0,0,0-.79-0.22h0Z" transform="translate(-191.7 -32.91)"/><path class="cls-1" d="M287.07,208.72c-1,2.94-1.82,5.9-2.57,8.89-0.37,1.47-.71,2.95-1,4.42-0.17.77-.33,1.53-0.48,2.31a7.11,7.11,0,0,0-.25,2.11,0.31,0.31,0,0,0,.56.16,7.53,7.53,0,0,0,.54-2c0.16-.77.3-1.54,0.47-2.31,0.31-1.49.65-3,1-4.43,0.73-3,1.54-6,2.46-8.92a0.37,0.37,0,0,0-.72-0.19h0Z" transform="translate(-191.7 -32.91)"/><path class="cls-1" d="M288.48,217.64a22.06,22.06,0,0,0-1.85,5.53,20.75,20.75,0,0,0-.34,2.82,8.76,8.76,0,0,0,.18,2.9c0.07,0.25.52,0.3,0.56,0a24.47,24.47,0,0,0,.09-2.6,20.1,20.1,0,0,1,.32-2.88,20.93,20.93,0,0,1,1.75-5.34c0.23-.48-0.48-0.9-0.72-0.42h0Z" transform="translate(-191.7 -32.91)"/><path class="cls-1" d="M290.46,228a7.44,7.44,0,0,0-.91,3.63,5.07,5.07,0,0,0,1.1,3.49,0.24,0.24,0,0,0,.4-0.23c-0.13-.56-0.37-1.08-0.51-1.64a6.64,6.64,0,0,1,.6-4.85A0.39,0.39,0,0,0,290.46,228Z" transform="translate(-191.7 -32.91)"/><path class="cls-1" d="M292.71,236.67c-0.18.6-.35,1.19-0.54,1.79l-0.26.88a1,1,0,0,0,0,.93,0.25,0.25,0,0,0,.25.06,1,1,0,0,0,.45-0.78l0.28-.91,0.54-1.79a0.35,0.35,0,0,0-.67-0.18h0Z" transform="translate(-191.7 -32.91)"/><path class="cls-1" d="M295.33,252.86l-3.09,5.86c-1,2-2.14,3.88-3,5.9a0.23,0.23,0,0,0,.4.23c1.17-1.87,2.13-3.87,3.16-5.82l3.09-5.85a0.31,0.31,0,0,0-.54-0.31h0Z" transform="translate(-191.7 -32.91)"/><path class="cls-1" d="M282.41,270.7a24,24,0,0,0-8.09,2.24,17.79,17.79,0,0,0-6.71,5c-0.16.21,0.17,0.4,0.33,0.26,1.06-.85,2-1.8,3.13-2.6a23.15,23.15,0,0,1,11.34-4.29C282.79,271.26,282.8,270.66,282.41,270.7Z" transform="translate(-191.7 -32.91)"/><path class="cls-1" d="M268.37,281.36c1.68,2.31-.08,4.91-1.95,6.43a21,21,0,0,1-6.88,3.71c-2.15.68-4.53,0.85-6.5,2-1.45.86-2.8,2.43-2.55,4.22a0.22,0.22,0,0,0,.42,0c0.4-2.73,2.53-4,5-4.7a34,34,0,0,0,7-2.34,15.08,15.08,0,0,0,5.4-4.21,4.52,4.52,0,0,0,.34-5.31c-0.15-.19-0.47,0-0.33.19h0Z" transform="translate(-191.7 -32.91)"/><path class="cls-1" d="M252.68,299.45c2.21,1.81,4.36,3.71,6.68,5.38a0.22,0.22,0,0,0,.27-0.35c-2.09-1.91-4.38-3.62-6.6-5.39-0.25-.2-0.61.15-0.36,0.36h0Z" transform="translate(-191.7 -32.91)"/><path class="cls-1" d="M254,296.86a58,58,0,0,1,5.67,3.75c1.82,1.36,3.46,2.92,5.25,4.3,0.25,0.19.49-.2,0.31-0.41a30.61,30.61,0,0,0-5.11-4.47,55.53,55.53,0,0,0-5.78-3.76A0.34,0.34,0,0,0,254,296.86Z" transform="translate(-191.7 -32.91)"/><path class="cls-1" d="M257.21,293.75l7.15,5.5,3.52,2.7a30.7,30.7,0,0,0,3.71,2.66,0.25,0.25,0,0,0,.3-0.39,28.79,28.79,0,0,0-3.4-2.76l-3.64-2.78-7.3-5.52c-0.36-.27-0.7.33-0.35,0.6h0Z" transform="translate(-191.7 -32.91)"/><path class="cls-1" d="M260.34,291.79q3.68,3,7.38,6l3.65,2.92a28.56,28.56,0,0,0,3.72,2.74,0.27,0.27,0,0,0,.32-0.42,28.36,28.36,0,0,0-3.55-3l-3.8-3q-3.65-2.87-7.34-5.7a0.31,0.31,0,0,0-.38.49h0Z" transform="translate(-191.7 -32.91)"/><path class="cls-1" d="M263.29,289.84c2,1.75,4.05,3.51,6.09,5.24l3,2.57a18.19,18.19,0,0,0,3.1,2.42c0.23,0.12.58-.15,0.39-0.39a17,17,0,0,0-2.79-2.56L270,294.51c-2.06-1.72-4.14-3.42-6.22-5.12-0.31-.26-0.76.18-0.45,0.45h0Z" transform="translate(-191.7 -32.91)"/><path class="cls-1" d="M265.86,286.94c1.55,1.38,3.1,2.75,4.67,4.12a37.37,37.37,0,0,0,4.75,3.87,0.3,0.3,0,0,0,.36-0.46,39.16,39.16,0,0,0-4.55-4.1c-1.54-1.31-3.14-2.62-4.71-3.93-0.35-.3-0.86.2-0.51,0.51h0Z" transform="translate(-191.7 -32.91)"/><path class="cls-1" d="M269.45,283.68l3.25,2.59c0.53,0.42,1,.84,1.58,1.25a8.82,8.82,0,0,0,1.73,1.14,0.33,0.33,0,0,0,.37-0.48,7.57,7.57,0,0,0-1.42-1.35c-0.54-.44-1.09-0.86-1.63-1.28L270.11,283a0.47,0.47,0,0,0-.65,0,0.45,0.45,0,0,0,0,.65h0Z" transform="translate(-191.7 -32.91)"/><path class="cls-1" d="M270.36,278.2l2.63,1.87a26,26,0,0,0,2.7,1.75,0.28,0.28,0,0,0,.33-0.43,27.13,27.13,0,0,0-2.59-2l-2.69-1.87c-0.41-.29-0.78.38-0.39,0.66h0Z" transform="translate(-191.7 -32.91)"/><path class="cls-1" d="M275.08,275.8l0.35,0.84c0.06,0.15.12,0.31,0.19,0.45l0.22,0.41a0.25,0.25,0,0,0,.46-0.19c0-.15-0.07-0.3-0.12-0.44s-0.1-.27-0.16-0.41l-0.32-.83a0.34,0.34,0,0,0-.4-0.23,0.33,0.33,0,0,0-.23.4h0Z" transform="translate(-191.7 -32.91)"/><path class="cls-1" d="M277.24,296.64l4,2.51a33.8,33.8,0,0,0,4,2.41c0.27,0.13.63-.23,0.35-0.45a37.47,37.47,0,0,0-3.93-2.59L277.61,296a0.36,0.36,0,0,0-.37.63h0Z" transform="translate(-191.7 -32.91)"/><path class="cls-1" d="M278.54,287.9c1.66,2,3.4,3.91,5.24,5.72,0.89,0.89,1.81,1.75,2.74,2.59a24,24,0,0,0,3,2.44,0.3,0.3,0,0,0,.36-0.46c-0.86-.91-1.85-1.71-2.78-2.55s-1.9-1.75-2.82-2.66c-1.82-1.79-3.58-3.64-5.25-5.57-0.29-.33-0.77.15-0.48,0.48h0Z" transform="translate(-191.7 -32.91)"/><path class="cls-1" d="M278.5,281.94c2,2,3.91,4,5.73,6.12s3.49,4.35,5.27,6.5a0.3,0.3,0,0,0,.46-0.36,48.52,48.52,0,0,0-5-6.69c-1.83-2.11-3.82-4.18-5.88-6.13a0.4,0.4,0,0,0-.56.56h0Z" transform="translate(-191.7 -32.91)"/><path class="cls-1" d="M277.55,276.9a95.2,95.2,0,0,1,7.93,8.11c2.47,2.85,4.7,5.91,7,8.89,0.21,0.27.63-.07,0.46-0.36a58.48,58.48,0,0,0-6.76-9,87.64,87.64,0,0,0-8.15-8.1c-0.33-.3-0.83.19-0.5,0.5h0Z" transform="translate(-191.7 -32.91)"/><path class="cls-1" d="M279.83,273.29q3.75,3.66,7.3,7.53,1.74,1.91,3.44,3.86a35.9,35.9,0,0,0,3.53,4,0.36,0.36,0,0,0,.56-0.43,24.25,24.25,0,0,0-3.17-4c-1.15-1.34-2.35-2.65-3.56-3.94-2.42-2.59-4.94-5.07-7.55-7.48A0.39,0.39,0,0,0,279.83,273.29Z" transform="translate(-191.7 -32.91)"/><path class="cls-1" d="M283.74,270.38q3.49,3.5,7,7a65.53,65.53,0,0,0,7.09,6.64,0.32,0.32,0,0,0,.43-0.43,66,66,0,0,0-6.8-6.93c-2.31-2.23-4.76-4.57-7.15-6.85A0.41,0.41,0,0,0,283.74,270.38Z" transform="translate(-191.7 -32.91)"/><path class="cls-1" d="M287.73,268q2.49,2.49,5,5c0.82,0.81,1.64,1.63,2.48,2.42a13.56,13.56,0,0,0,2.66,2.23,0.34,0.34,0,0,0,.46-0.46,12.86,12.86,0,0,0-2.24-2.51c-0.85-.84-1.72-1.65-2.57-2.47-1.7-1.62-3.41-3.22-5.12-4.83a0.46,0.46,0,0,0-.66.66h0Z" transform="translate(-191.7 -32.91)"/><path class="cls-1" d="M290.71,263.07l4.23,4.16c0.68,0.67,1.37,1.35,2.06,2,0.35,0.34.7,0.69,1.08,1a3.53,3.53,0,0,0,1.16.82,0.36,0.36,0,0,0,.43-0.43,3.27,3.27,0,0,0-.8-1.07c-0.34-.36-0.7-0.7-1.06-1l-2.15-2-4.31-4.07a0.45,0.45,0,0,0-.64.64h0Z" transform="translate(-191.7 -32.91)"/><path class="cls-1" d="M293.4,260.05l2.24,1.76,1.11,0.87c0.19,0.15.38,0.3,0.58,0.43a1.1,1.1,0,0,0,.72.29,0.35,0.35,0,0,0,.33-0.43,1.06,1.06,0,0,0-.42-0.59l-0.56-.45-1.15-.87L294,259.34c-0.41-.3-1,0.4-0.55.71h0Z" transform="translate(-191.7 -32.91)"/><path class="cls-1" d="M295.52,254.41l0.85,0.64c0.29,0.21.58,0.41,0.87,0.61a0.29,0.29,0,0,0,.37-0.07,0.29,0.29,0,0,0,0-.38c-0.26-.24-0.52-0.48-0.78-0.71L296,253.8a0.39,0.39,0,0,0-.58,0,0.36,0.36,0,0,0-.07.29,0.41,0.41,0,0,0,.18.29h0Z" transform="translate(-191.7 -32.91)"/><path class="cls-1" d="M250.86,265.31c6,3.2,12,6.58,18.15,9.47a0.26,0.26,0,0,0,.26-0.44c-5.88-3.45-12-6.45-18.09-9.58-0.36-.18-0.68.36-0.32,0.54h0Z" transform="translate(-191.7 -32.91)"/><path class="cls-1" d="M250,252.56q5.9,4.09,11.8,8.15c3.94,2.71,7.82,5.5,11.88,8,0.3,0.19.55-.27,0.28-0.47-3.81-2.89-7.81-5.52-11.76-8.23l-11.85-8.09c-0.38-.26-0.74.36-0.36,0.62h0Z" transform="translate(-191.7 -32.91)"/><path class="cls-1" d="M255.07,247.12q7.54,4.53,14.65,9.7c4.74,3.44,9.41,7.34,14.05,11.12a0.24,0.24,0,0,0,.34-0.34c-8.57-8.14-18.58-15-28.72-21a0.31,0.31,0,0,0-.31.54h0Z" transform="translate(-191.7 -32.91)"/><path class="cls-1" d="M258.86,240.79q7.61,4.7,14.84,10c4.82,3.5,9.6,7.43,14.36,11.2,0.25,0.19.6-.13,0.36-0.36-8.81-8.17-19-15.1-29.27-21.28a0.28,0.28,0,0,0-.29.49h0Z" transform="translate(-191.7 -32.91)"/><path class="cls-1" d="M264.43,233a99.45,99.45,0,0,1,13.62,7.89A152,152,0,0,1,290.55,251a0.29,0.29,0,0,0,.42-0.42,71.49,71.49,0,0,0-12.16-10.14,92.8,92.8,0,0,0-14.06-7.91c-0.35-.16-0.66.36-0.31,0.53h0Z" transform="translate(-191.7 -32.91)"/><path class="cls-1" d="M274,229.75a46.35,46.35,0,0,0,6.24,4.91,31,31,0,0,0,7,3.61,0.24,0.24,0,0,0,.18-0.43c-2.29-1.2-4.6-2.33-6.77-3.73a46.4,46.4,0,0,1-6.22-4.83,0.33,0.33,0,0,0-.47.47h0Z" transform="translate(-191.7 -32.91)"/><path class="cls-1" d="M222.13,229.83c0.36-5.21.73-10.42,1.06-15.63,0.16-2.52.31-5,.5-7.55s0.54-5.12.52-7.65c0-.22-0.37-0.3-0.41-0.06-0.34,2.32-.35,4.71-0.51,7.05-0.18,2.66-.38,5.32-0.58,8-0.41,5.29-.76,10.58-1.13,15.86,0,0.35.53,0.35,0.54,0h0Z" transform="translate(-191.7 -32.91)"/><path class="cls-1" d="M222.37,225.85l1.25,1.28a8,8,0,0,0,1.35,1.21,0.24,0.24,0,0,0,.33-0.33,8.37,8.37,0,0,0-1.2-1.36l-1.27-1.26A0.33,0.33,0,0,0,222.37,225.85Z" transform="translate(-191.7 -32.91)"/><path class="cls-1" d="M222.71,219.2a15.52,15.52,0,0,0,2,3.46,10.63,10.63,0,0,0,2.83,2.77,0.27,0.27,0,0,0,.33-0.42,29.79,29.79,0,0,1-2.65-2.75,15,15,0,0,1-1.92-3.31c-0.14-.32-0.72-0.09-0.58.24h0Z" transform="translate(-191.7 -32.91)"/><path class="cls-1" d="M221.79,214.27l3.21,3.32,1.56,1.62a10.18,10.18,0,0,0,1.71,1.56,0.26,0.26,0,0,0,.35-0.35,9.56,9.56,0,0,0-1.49-1.69l-1.62-1.64-3.26-3.28a0.33,0.33,0,0,0-.47.47h0Z" transform="translate(-191.7 -32.91)"/><path class="cls-1" d="M222.44,210l3.79,4,1.87,2,0.92,1a4.58,4.58,0,0,0,1.05.92,0.29,0.29,0,0,0,.4-0.4,3.9,3.9,0,0,0-.83-1l-0.9-1-1.95-2-3.84-4a0.36,0.36,0,0,0-.51.51h0Z" transform="translate(-191.7 -32.91)"/><path class="cls-1" d="M223.59,207.93l4.26,3.26a43.11,43.11,0,0,0,4.32,3.17,0.27,0.27,0,0,0,.32-0.42,44.37,44.37,0,0,0-4.21-3.32l-4.34-3.3c-0.37-.28-0.73.34-0.36,0.62h0Z" transform="translate(-191.7 -32.91)"/><path class="cls-1" d="M222.73,201.52l4.75,3.73,2.26,1.76,1.24,1a3.79,3.79,0,0,0,1.24.75,0.34,0.34,0,0,0,.38-0.49,3.48,3.48,0,0,0-.92-0.91c-0.41-.32-0.82-0.63-1.24-1L228,204.53l-4.83-3.64a0.39,0.39,0,0,0-.47.61v0Z" transform="translate(-191.7 -32.91)"/><path class="cls-1" d="M224.63,199.39L229,202.7l2.17,1.65a10,10,0,0,0,2.17,1.48,0.33,0.33,0,0,0,.37-0.48,9.36,9.36,0,0,0-2-1.63L229.45,202,225,198.77c-0.37-.28-0.72.34-0.36,0.62h0Z" transform="translate(-191.7 -32.91)"/><path class="cls-1" d="M226,195.25l3.24,2.3a19.1,19.1,0,0,0,3.31,2.17,0.28,0.28,0,0,0,.33-0.43,19,19,0,0,0-3.19-2.4l-3.31-2.3c-0.41-.28-0.78.38-0.38,0.66h0Z" transform="translate(-191.7 -32.91)"/><path class="cls-1" d="M228.55,189l2,1.46,1,0.72a4.18,4.18,0,0,0,1.07.63,0.28,0.28,0,0,0,.31-0.13,0.29,0.29,0,0,0,0-.34,4.55,4.55,0,0,0-1-.83l-1-.71-2-1.45a0.38,0.38,0,0,0-.52.14,0.39,0.39,0,0,0,.14.52h0Z" transform="translate(-191.7 -32.91)"/><path class="cls-1" d="M225.23,152a8,8,0,0,0,1.92,2.24,6,6,0,0,0,2.61,1.35c0.22,0,.4-0.27.17-0.39a13.66,13.66,0,0,1-2.38-1.4,7.87,7.87,0,0,1-1.8-2.11,0.29,0.29,0,0,0-.51.3h0Z" transform="translate(-191.7 -32.91)"/><path class="cls-1" d="M220.3,145.41l5.55,3.56c1.85,1.19,3.66,2.45,5.61,3.46a0.23,0.23,0,0,0,.23-0.4c-1.74-1.34-3.65-2.46-5.51-3.63l-5.57-3.53a0.31,0.31,0,0,0-.31.54h0Z" transform="translate(-191.7 -32.91)"/><path class="cls-1" d="M218.84,141.34a49.24,49.24,0,0,0,6.26,4.62q1.63,1,3.35,1.88c0.61,0.3,1.22.6,1.84,0.88a4.43,4.43,0,0,0,1.68.54,0.3,0.3,0,0,0,.21-0.51,5,5,0,0,0-1.54-.84c-0.54-.25-1.1-0.51-1.63-0.78-1.14-.57-2.27-1.19-3.38-1.84a46.79,46.79,0,0,1-6.27-4.46c-0.34-.29-0.85.2-0.5,0.5h0Z" transform="translate(-191.7 -32.91)"/><path class="cls-1" d="M220,138.54a24.92,24.92,0,0,0,5,2.83,18.17,18.17,0,0,0,5.49,1.54,0.45,0.45,0,0,0,.31-0.76l-0.72-.6a0.26,0.26,0,0,0-.41.31l0.43,0.82,0.5-.65c-0.92-.23-1.87-0.37-2.79-0.63s-1.72-.52-2.55-0.84a24.47,24.47,0,0,1-4.95-2.64c-0.38-.26-0.72.35-0.36,0.61h0Z" transform="translate(-191.7 -32.91)"/><path class="cls-1" d="M221.4,135.34a19.06,19.06,0,0,0,4.38,2.49,18,18,0,0,0,2.39.78,5,5,0,0,0,2.44.26,0.3,0.3,0,0,0,.07-0.54,8.94,8.94,0,0,0-2.28-.55,18.27,18.27,0,0,1-2.32-.71,18,18,0,0,1-4.3-2.35c-0.38-.28-0.73.35-0.37,0.63h0Z" transform="translate(-191.7 -32.91)"/><path class="cls-1" d="M220.93,136.37a11.52,11.52,0,0,0-.47,4.34,8.9,8.9,0,0,0,1.23,4.13c0.17,0.26.63,0.1,0.52-.21a15.61,15.61,0,0,1-1-4,11.12,11.12,0,0,1,.42-4.09,0.34,0.34,0,0,0-.65-0.18h0Z" transform="translate(-191.7 -32.91)"/><path class="cls-1" d="M225.89,152.4l1.8,2.92a25.72,25.72,0,0,0,1.89,2.81c0.19,0.24.51-.06,0.4-0.3a25.57,25.57,0,0,0-1.72-2.91c-0.61-.94-1.22-1.89-1.82-2.84a0.32,0.32,0,0,0-.56.32h0Z" transform="translate(-191.7 -32.91)"/></svg>