<?xml version="1.0" encoding="UTF-8"?>
<svg xmlns="http://www.w3.org/2000/svg" xmlns:xlink="http://www.w3.org/1999/xlink" version="1.1" viewBox="0 0 500 500">
  <defs>
    <style>
      .cls-1, .cls-2, .cls-3 {
        fill: none;
      }

      .cls-4 {
        clip-path: url(#clippath-17);
      }

      .cls-5 {
        clip-path: url(#clippath-19);
      }

      .cls-6 {
        clip-path: url(#clippath-11);
      }

      .cls-7 {
        clip-path: url(#clippath-16);
      }

      .cls-8 {
        clip-path: url(#clippath-18);
      }

      .cls-9 {
        clip-path: url(#clippath-10);
      }

      .cls-10 {
        clip-path: url(#clippath-15);
      }

      .cls-11 {
        clip-path: url(#clippath-13);
      }

      .cls-12 {
        clip-path: url(#clippath-14);
      }

      .cls-13 {
        clip-path: url(#clippath-12);
      }

      .cls-14 {
        clip-path: url(#clippath-31);
      }

      .cls-15 {
        clip-path: url(#clippath-32);
      }

      .cls-16 {
        clip-path: url(#clippath-33);
      }

      .cls-17 {
        clip-path: url(#clippath-34);
      }

      .cls-18 {
        clip-path: url(#clippath-35);
      }

      .cls-19 {
        clip-path: url(#clippath-39);
      }

      .cls-20 {
        clip-path: url(#clippath-30);
      }

      .cls-21 {
        clip-path: url(#clippath-36);
      }

      .cls-22 {
        clip-path: url(#clippath-37);
      }

      .cls-23 {
        clip-path: url(#clippath-38);
      }

      .cls-24 {
        clip-path: url(#clippath-27);
      }

      .cls-25 {
        clip-path: url(#clippath-29);
      }

      .cls-26 {
        clip-path: url(#clippath-26);
      }

      .cls-27 {
        clip-path: url(#clippath-28);
      }

      .cls-28 {
        clip-path: url(#clippath-20);
      }

      .cls-29 {
        clip-path: url(#clippath-21);
      }

      .cls-30 {
        clip-path: url(#clippath-22);
      }

      .cls-31 {
        clip-path: url(#clippath-23);
      }

      .cls-32 {
        clip-path: url(#clippath-24);
      }

      .cls-33 {
        clip-path: url(#clippath-25);
      }

      .cls-34 {
        clip-path: url(#clippath-1);
      }

      .cls-35 {
        clip-path: url(#clippath-3);
      }

      .cls-36 {
        clip-path: url(#clippath-4);
      }

      .cls-37 {
        clip-path: url(#clippath-2);
      }

      .cls-38 {
        clip-path: url(#clippath-7);
      }

      .cls-39 {
        clip-path: url(#clippath-6);
      }

      .cls-40 {
        clip-path: url(#clippath-9);
      }

      .cls-41 {
        clip-path: url(#clippath-8);
      }

      .cls-42 {
        clip-path: url(#clippath-5);
      }

      .cls-2 {
        stroke-width: 2px;
      }

      .cls-2, .cls-3 {
        stroke: #000;
        stroke-miterlimit: 10;
      }

      .cls-43 {
        clip-path: url(#clippath);
      }

      .cls-3 {
        stroke-width: 2.5px;
      }
    </style>
    <clipPath id="clippath">
      <rect class="cls-1" x="256" y="356" width="36" height="20"/>
    </clipPath>
    <clipPath id="clippath-1">
      <rect class="cls-1" x="92.2" y="46.6" width="361" height="363" transform="translate(-69.5 131.7) rotate(-24.2)"/>
    </clipPath>
    <clipPath id="clippath-2">
      <rect class="cls-1" x="92.3" y="46.9" width="361" height="363" transform="translate(-69.6 131.8) rotate(-24.2)"/>
    </clipPath>
    <clipPath id="clippath-3">
      <rect class="cls-1" x="92.3" y="46.9" width="361" height="363" transform="translate(-69.6 131.8) rotate(-24.2)"/>
    </clipPath>
    <clipPath id="clippath-4">
      <rect class="cls-1" x="410.7" y="141.3" width="1.3" height="2.7"/>
    </clipPath>
    <clipPath id="clippath-5">
      <rect class="cls-1" x="92.2" y="46.6" width="361" height="363" transform="translate(-69.5 131.7) rotate(-24.2)"/>
    </clipPath>
    <clipPath id="clippath-6">
      <rect class="cls-1" x="92.3" y="46.9" width="361" height="363" transform="translate(-69.6 131.8) rotate(-24.2)"/>
    </clipPath>
    <clipPath id="clippath-7">
      <rect class="cls-1" x="92.3" y="46.9" width="361" height="363" transform="translate(-69.6 131.8) rotate(-24.2)"/>
    </clipPath>
    <clipPath id="clippath-8">
      <rect class="cls-1" x="206.3" y="104" width="248" height="309.3"/>
    </clipPath>
    <clipPath id="clippath-9">
      <rect class="cls-1" x="91.8" y="46.6" width="361" height="363" transform="translate(-69.6 131.6) rotate(-24.2)"/>
    </clipPath>
    <clipPath id="clippath-10">
      <rect class="cls-1" x="91.9" y="46.9" width="361" height="363" transform="translate(-69.7 131.6) rotate(-24.2)"/>
    </clipPath>
    <clipPath id="clippath-11">
      <rect class="cls-1" x="91.9" y="46.9" width="361" height="363" transform="translate(-69.7 131.6) rotate(-24.2)"/>
    </clipPath>
    <clipPath id="clippath-12">
      <rect class="cls-1" x="366.7" y="249.3" width="6.7" height="8"/>
    </clipPath>
    <clipPath id="clippath-13">
      <rect class="cls-1" x="92.2" y="46.6" width="361" height="363" transform="translate(-69.5 131.7) rotate(-24.2)"/>
    </clipPath>
    <clipPath id="clippath-14">
      <rect class="cls-1" x="92.3" y="46.9" width="361" height="363" transform="translate(-69.6 131.8) rotate(-24.2)"/>
    </clipPath>
    <clipPath id="clippath-15">
      <rect class="cls-1" x="92.3" y="46.9" width="361" height="363" transform="translate(-69.6 131.8) rotate(-24.2)"/>
    </clipPath>
    <clipPath id="clippath-16">
      <rect class="cls-1" x="373.3" y="253.3" width="4" height="2.7"/>
    </clipPath>
    <clipPath id="clippath-17">
      <rect class="cls-1" x="92.2" y="46.6" width="361" height="363" transform="translate(-69.5 131.7) rotate(-24.2)"/>
    </clipPath>
    <clipPath id="clippath-18">
      <rect class="cls-1" x="92.3" y="46.9" width="361" height="363" transform="translate(-69.6 131.8) rotate(-24.2)"/>
    </clipPath>
    <clipPath id="clippath-19">
      <rect class="cls-1" x="92.3" y="46.9" width="361" height="363" transform="translate(-69.6 131.8) rotate(-24.2)"/>
    </clipPath>
    <clipPath id="clippath-20">
      <rect class="cls-1" x="372" y="249.3" width="4" height="4"/>
    </clipPath>
    <clipPath id="clippath-21">
      <rect class="cls-1" x="92.2" y="46.6" width="361" height="363" transform="translate(-69.5 131.7) rotate(-24.2)"/>
    </clipPath>
    <clipPath id="clippath-22">
      <rect class="cls-1" x="92.3" y="46.9" width="361" height="363" transform="translate(-69.6 131.8) rotate(-24.2)"/>
    </clipPath>
    <clipPath id="clippath-23">
      <rect class="cls-1" x="92.3" y="46.9" width="361" height="363" transform="translate(-69.6 131.8) rotate(-24.2)"/>
    </clipPath>
    <clipPath id="clippath-24">
      <rect class="cls-1" x="366.7" y="245.3" width="1.3" height="4"/>
    </clipPath>
    <clipPath id="clippath-25">
      <rect class="cls-1" x="92.2" y="46.6" width="361" height="363" transform="translate(-69.5 131.7) rotate(-24.2)"/>
    </clipPath>
    <clipPath id="clippath-26">
      <rect class="cls-1" x="92.3" y="46.9" width="361" height="363" transform="translate(-69.6 131.8) rotate(-24.2)"/>
    </clipPath>
    <clipPath id="clippath-27">
      <rect class="cls-1" x="92.3" y="46.9" width="361" height="363" transform="translate(-69.6 131.8) rotate(-24.2)"/>
    </clipPath>
    <clipPath id="clippath-28">
      <rect class="cls-1" x="365.3" y="245.3" width="1.3" height="2.7"/>
    </clipPath>
    <clipPath id="clippath-29">
      <rect class="cls-1" x="92.2" y="46.6" width="361" height="363" transform="translate(-69.5 131.7) rotate(-24.2)"/>
    </clipPath>
    <clipPath id="clippath-30">
      <rect class="cls-1" x="92.3" y="46.9" width="361" height="363" transform="translate(-69.6 131.8) rotate(-24.2)"/>
    </clipPath>
    <clipPath id="clippath-31">
      <rect class="cls-1" x="92.3" y="46.9" width="361" height="363" transform="translate(-69.6 131.8) rotate(-24.2)"/>
    </clipPath>
    <clipPath id="clippath-32">
      <rect class="cls-1" x="364" y="253.3" width="2.7" height="2.7"/>
    </clipPath>
    <clipPath id="clippath-33">
      <rect class="cls-1" x="92.2" y="46.6" width="361" height="363" transform="translate(-69.5 131.7) rotate(-24.2)"/>
    </clipPath>
    <clipPath id="clippath-34">
      <rect class="cls-1" x="92.3" y="46.9" width="361" height="363" transform="translate(-69.6 131.8) rotate(-24.2)"/>
    </clipPath>
    <clipPath id="clippath-35">
      <rect class="cls-1" x="92.3" y="46.9" width="361" height="363" transform="translate(-69.6 131.8) rotate(-24.2)"/>
    </clipPath>
    <clipPath id="clippath-36">
      <rect class="cls-1" x="366.7" y="257.3" width="2.7" height="2.7"/>
    </clipPath>
    <clipPath id="clippath-37">
      <rect class="cls-1" x="92.2" y="46.6" width="361" height="363" transform="translate(-69.5 131.7) rotate(-24.2)"/>
    </clipPath>
    <clipPath id="clippath-38">
      <rect class="cls-1" x="92.3" y="46.9" width="361" height="363" transform="translate(-69.6 131.8) rotate(-24.2)"/>
    </clipPath>
    <clipPath id="clippath-39">
      <rect class="cls-1" x="92.3" y="46.9" width="361" height="363" transform="translate(-69.6 131.8) rotate(-24.2)"/>
    </clipPath>
  </defs>
  <!-- Generator: Adobe Illustrator 28.6.0, SVG Export Plug-In . SVG Version: 1.2.0 Build 709)  -->
  <g>
    <g id="Capa_1">
      <g class="cls-43">
        <g class="cls-34">
          <g class="cls-37">
            <g class="cls-35">
              <path d="M256.2,357.5c-.2,0-.3.4,0,.5,3.6,1.1,6.9,2.7,9.9,4.9,2.9,2.3,5.2,5.2,8.2,7.3,3.9,2.8,10,5.7,15,4.1.7,0,1.4,0,2-.2.2,0,.3-.3.1-.4h0c0-.2,0-.2,0-.3l-.2-.4c0,0-.2-.1-.3,0-.1,0-.2.1-.2.3h0c-1.1,0-2.1-1-2.9-1.7-.9-.8-1.7-1.7-2.6-2.5-2.7-2.7-5-5.3-8.2-7.3-3.4-2.2-7.2-3.6-11.2-4.2-1.9-.2-3.8-.3-5.6-.4-1.2-.1-2.5,0-3.7.2,0,0-.1,0-.2,0s0,0,0,.1ZM261.1,358.1c2,.2,4,.1,6,.5,4.4,1,8.5,2.8,12,5.6,2.4,2.2,4.7,4.4,6.9,6.8.9,1,1.9,1.9,3.1,2.6-4.2-.2-7.9-2.3-11.1-5-1.7-1.4-3.4-2.9-5-4.4-2.1-1.8-4.4-3.1-6.9-4.1-.2,0-.4.3-.2.4,2.8,1.1,5.3,2.7,7.5,4.8,1.8,1.7,3.6,3.4,5.5,4.8,2.1,1.7,4.4,2.8,6.9,3.6-4.9-.4-9.6-3-13.1-6.1-2.6-2.2-4.7-4.9-7.5-6.6-2.5-1.5-5.1-2.6-7.9-3.3,1.3,0,2.7.1,4,.3Z"/>
            </g>
          </g>
        </g>
      </g>
      <g class="cls-36">
        <g class="cls-42">
          <g class="cls-39">
            <g class="cls-38">
              <path d="M411.1,141.6l-.3.8c0,.1,0,.2,0,.3s.1.2.2.2c.1,0,.2,0,.3,0s.2-.1.2-.2l.3-.8c0-.2,0-.4-.3-.5-.2,0-.4,0-.5.2Z"/>
            </g>
          </g>
        </g>
      </g>
      <g class="cls-41">
        <g class="cls-40">
          <g class="cls-9">
            <g class="cls-6">
              <path d="M372.3,129.1c-.2,0-.3.2-.3.3,0,.1,0,.2,0,.3-.6.3-1.2.6-1.9.9-1.4.5-2.9.9-4.3,1.5-2.4,1.1-4.3,2.5-4.4,5.3,0,.2,0,.3.2.5.1.1.3.2.4.2,3.2-.1,9-2.9,10.5-6.5.4-.2.8-.4,1.2-.6,1,1.2,2,2.5,2.9,3.8,0,0,0,.2,0,.3h0c-1.9,2-2.8,4.9-3.6,7.4-1.2,3.8-1.8,7.7-1.7,11.7,0,5.1,1.1,16.1-3.4,20.4-.7.5-1.5,1-2.3,1.3,0,0-.1,0-.2,0-.5.2-.3,1,.2.8.9-.2,1.7-.6,2.4-1.2,6.4-3.8,10-11.5,11.9-18.5.8-3.2,1.1-6.4.9-9.7-.2-3.3-.9-6.5-2-9.5v-.3c7.8,11.2,14.1,23.1,18.7,36,0,0-.2.2-.2.3,0,.1,0,.2,0,.3h0c0,.2-.1.3,0,.5.2,1.2.7,2.3,1.6,3.2v.2c0,2.4-1.7,4.6-3.2,6.5-2.2,2.7-4.6,5.2-7.2,7.5-5.2,4.7-11,8.7-16.6,13-5.5,4-10.4,8.7-14.7,13.9-2,2.6-3.7,5.3-5.1,8.3-.9,1.9-2.5,4.8-1,6.8,0,0,.2.2.3.2.1,0,.2,0,.4,0,.1,0,.2,0,.3,0,.1,0,.2-.1.3-.2,4.1-5.1,9.2-9.1,15.2-11.9,5.2-2.4,10.8-3.6,16.1-5.9,2.5-1,4.8-2.3,6.8-4,2.1-1.6,3.9-3.5,5.5-5.7,3-4.4,4.8-9.3,5.5-14.6.2-1.3.4-2.6.5-4,1.4,5.5,2.5,11,3.2,16.7-.1.2-.1.3,0,.5.3,2.2.5,4.4.7,6.6.1,1.6.2,3.2.3,4.8,0,.2-.2.5-.3.8-.3.9-.5,1.7-.8,2.5-.1.3-.3.8-.5,1.3-.3,0-.5.1-.7.4-.5.9-1.1,1.6-1.9,2.2-.1,0-.2,0-.3,0,0,0-.1.1-.2.2-2.7,1.7-6.4,2.1-9.3,3.5-1.3.7-3.7,2.5-1.7,3.9,1.7,1.3,5.4-.2,7.1-.9,1.5-.6,2.8-1.4,4-2.5,1.2-1.1,2.1-2.4,2.8-3.8.2-.2.4-.4.5-.6-.9,4-2,7.9-5.2,11.1l-.3.3c0,0-.2,0-.2,0s-.1,0-.2.1c0,0,0,.1-.1.2,0,0,0,.2,0,.2-1.4,1.3-2.8,2.6-4.4,3.8,0,0-.1-.2-.2-.2s-.2,0-.3,0c-2.7,1.2-4.5,1.1-7.3.8-1.6-.2-3.3-.2-4.9.3-.9-.5-1.8-.8-2.8-.7.8-3.8.7-7.3-3.3-9.6-3.7-2.1-8.3-.3-11.3,2.3-1.7,1.5-2.4,3.5-3.6,5.4-1.2,1.9-3.7,3.1-4.6,5.4-.2.4-.3.8-.3,1.2,0,.4,0,.8.1,1.2.1.4.3.8.5,1.1.2.3.5.6.9.9-2.3.4-3.4,2.7-4.4,4.7-2.3,4.8.2,9.5,4.9,11.4,1.9.8,4,1.2,4.8,3.5.1.9.3,1.8.7,2.6,1.3,2,4.2,2,6.1,1.3.8-.2,1.5-.6,2.1-1.1.6-.5,1.2-1.1,1.6-1.8.4-.7.7-1.4.8-2.2s.1-1.6,0-2.3c2.4,2.3,5.5,3.6,7.9.3.9-1.2.7-1.9,2.7-2.7.9-.3,1.9-.3,2.8-.5,1.4-.4,2.6-1.2,3.5-2.2.8-1,1.4-2,1.7-3.3.3-1.2.3-2.5,0-3.7-.5-1.5-3-4.9-5.9-7.7,4.7-.3,9.1-3.8,12.6-6.9.2,3.6-3.1,7.1-.9,10.7,0,.1.2.2.4.3.2,0,.3,0,.4-.1,3.5-3,2.6-7.7,2.5-11.7,0-.2,0-.4-.2-.5-.2-.1-.3-.2-.6-.2,2.6-2.9,4.5-6.2,5.6-9.9,0,12.9-1.7,25.6-5,38-13.9.2-26.6,8.8-37.7,16.4-5.7,3.9-11.7,7.8-16.2,13.2-4.2,5-7,10.9-10.6,16.3,0,0,0,.1,0,.2,0,0,0,.1,0,.2,0,0,0,.1.1.2,0,0,.1,0,.2,0,0,.1.2.2.4.1,2.7-1.3,5-3.4,7.8-4.7,3.2-1.5,6.6-2.4,9.9-3.5,6.2-2.1,12.5-3.9,18.5-6.4,5.1-2.1,9.7-4.9,13.9-8.4,4.2-3.6,7.7-7.7,10.5-12.4-3.9,11.4-9.1,22.2-15.6,32.3-.2-.2-.4-.3-.5-.5-.4-.4-1,.2-.6.6.9.9,0,.8-.9,1-1,.1-2,.2-3.1.2-1.6,0-3.2,0-4.7,0-3.7.3-7.4,1.1-10.9,2.3-5.7,1.8-9.3,5.5-12.1,10.5,0-.1,0-.3,0-.4s.2-.2.3-.3c.3-.1.3-.7,0-.8h-.8c-.1-.2-.3-.2-.4-.1-.1,0-.2,0-.3.2,0,0-.2.2-.2.3,0,.1,0,.2,0,.4.8,8.3,13.6,6.1,18.8,4.3,1.6-.6,3.2-1.4,4.6-2.4-2.9,3.5-6,6.9-9.2,10.1-.7,0-1.5,0-2.2,0-2,0-4.1-.3-6.1-.7-4.5-1.1-9-1.8-13.6-2.1-2.3-.2-4.5,0-6.7.6-2.2.6-4.3,1.5-6.2,2.8-2,1.3-4.1,2.7-6.2,4-1.8,1.1-3.4,2.4-4.8,4,0,0,0,.1,0,.2.5,0,1,0,1.4,0l.2-.2c.3-.1.6-.3.9-.4h0c0,0,.2,0,.2-.1.2,0,.3-.2.5-.2,1.3-.5,2.7-.9,4-1.1,2.6-.6,5.2-.7,7.8-.4,5,.5,10,1.5,15,1.6,3.3.1,6.4-.5,9.4-2-.3.3-.6.5-.9.8-1.7,1.1-3.5,2.1-5.4,2.9-2.4,1.1-4.9,1.8-7.5,2.2-2.7.4-5.4.7-8.1.6-2.1,0-4.2,0-6.3,0,0,0-.2,0-.3,0-.2,0-.3,0-.5,0-.5-.9-2.1-1.2-2.1.2,0,1.4,2.1,1.4,2.8.5,2.2.1,4.5,0,6.8,0,2.8,0,5.5-.2,8.3-.7,2.6-.4,5-1.2,7.3-2.3,1.1-.5,2.1-1,3.1-1.6-.2.2-.4.3-.6.5s-.7.5-1,.6c-2.1,1.2-4.3,2.3-6.6,3.3-2.3,1.1-4.7,1.9-7.2,2.5-1.4.2-2.9.4-4.3.4,0-.5-.7-.8-1.2-.9-1.7-.2-2.6,2.2-.5,2.2.2,0,.3,0,.4-.2.3,0,.6-.2.8-.4,1.6-.3,3.2-.3,4.8-.7,2.2-.6,4.2-1.3,6.3-2.2,2.2-1,4.3-2,6.4-3.1-5.5,4.5-11.4,8.6-17.5,12.3-1.2,0-2.2-.3-3.2-.9-1-.7-2-1.5-3-2.3-1.7-1.4-3.6-2.4-5.7-3.1-2.1-.5-4.1-.3-6,.6-1.8.9-3.3,2.1-4.7,3.5-.1.2-.2.4-.4.5-.1.3-.3.7-.4,1.1,0,0,0,0,.1,0,1.8-1,4.8-.9,6.8-.8,2.4,0,4.6.8,6.6,2,1.4,1.1,2.9,1.8,4.6,2.2,0,0,.2,0,.3,0-.9.5-1.8,1-2.7,1.5-6,3.2-12.2,6-18.6,8.4-.3-1.5-.8-3-1.6-4.4-1-1.4-2.2-2.7-3.5-3.8-2.7-2.7-5.9-4.7-9.5-5.9-3.6-1.1-7.5-.5-11.4-1-2.2-.2-4.2-.8-6.2-1.8-1.6-.8-2.8-1.9-4.3-2.8-.1-.1-.3,0-.4,0,0,0,0,0-.1.1,0,0,0,.1,0,.2,1.1,1.8,2.4,3.4,3.9,4.9,1.3,1.5,2.8,2.8,4.4,4,1.6,1.1,3.4,2,5.2,2.7.7.3,1.3.5,2,.8-.4,0-.8.2-1.2.3-2.4.8-1.7,2.8-.5,4.5,1.7,2.4,3.9,4.2,6.7,5.3,1.2.4,2.3.8,3.6,1h0c0,0-.1,0-.2.1h-.3c0,.1,0,.2-.1.2-4.2,1.1-8.4,2-12.6,2.8-2.5-.8-5.1-1.6-7.8-2.1-1-.3-3.9-1.4-4.9-.4-1.2,1.1,1.7,2.5,2.4,2.8,1,.4,2.1.7,3.1.9-.7,0-1.5.2-2.2.3,0,0-.1.1-.2.2-2.3-.3-4.5-.4-6.8-.3-.4-1.1-.9-2.1-1.4-3-1.3-2.4-3-4.4-5.1-6.2-1.9-1.7-4-3.1-6.3-4.2-.9-.5-1.9-.9-2.9-1.2-1-.2-2,.1-2.9-.2h-.2c-.2-.2-.5.1-.3.3-.1,0-.2.1-.2.2,0,.1,0,.2,0,.3,1.1,2.5,2.6,4.8,4.4,6.9,1.8,2.1,3.8,3.9,6.1,5.4,1.4.9,2.9,1.6,4.4,2.1-1.2.3-2.5.6-3.7,1-1.1,0-2.1-.2-3.2-.3-5.9-.6-11.9-1.2-17.8-1.9.7-.2,1.3-.4,1.9-.8,1.6-1.1.5-1.5.7-3,.2-2.3,5-3.3,6.1-5.5,1.9-4-5.2-3.3-7-3.5-1.5-.2-3-.8-4.4-1.1.9-1.1,1.3-2.3,1.3-3.7,0-1.6-1.1-2.5-2.1-3.7-1.5-1.7-.7-3.4-1.1-5.4,0-.2-.2-.3-.3-.3-.2,0-.3,0-.4.2-1.3,2.4-2.2,4.5-4.7,5.8-1.7.9-3.4,1.7-4.5,3.4-.8,1.3-1.1,2.6-.8,4.1,0,.3.2.6.3.8-.6-.3-1.3-.5-2-.7-.7-.1-1.4-.1-2.1,0-.7,0-1.4.3-2.1.5-.7.3-1.3.6-1.8,1.1-2.1,1.8-2.4,4.5-2.2,7.2.2,1.7.2,3.4-.2,5.1-.5,1.7-1.2,3.3-2.3,4.8,0,.2,0,.3,0,.4,0,.1.2.2.4.2,2.4-.4,5.1-.3,7.5-1,0,0,0,0,0,0,.1,0,.3-.1.4-.2.1,0,.2,0,.2-.1-.3.6-.4,1.3-.4,2s.1,1.3.4,1.9c2.3,5.3,11,3.6,15.5,2,.2,0,.4-.2.6-.3.7-.2,1.3-.5,2-.9.2,0,.2-.2.2-.4,0-.2-.1-.3-.3-.4-.3,0-.6-.2-.8-.4,0,0-.1-.1-.2-.1l-.4-.3c0,0-.2-.1-.3-.2-1-.8-1.7-1.9-2-3.1,0-.3.4-.9.4-1.3,0-.7,0-1.3-.4-2l-.2-.5c.6.2,1.2.2,1.7.3.5,0,1.2.1,1.8.2,0,0,0,0,.2,0,.4,0,.9.1,1.4.2.6.2,1.2.3,1.9.3,0,0,0,0,.1,0,5.3.7,10.7,1.4,16,1.9-.6.3-1.2.6-1.8.8-5.8,2.6-11.1,6.1-15.7,10.5h-.1c0-.2,0-.3,0-.5,0-.2,0-.3-.2-.3s-.3,0-.4,0c-.1.1-.2.2-.3.4-1,0-2,0-2.9.4,0,0-.2,0-.3.1h-.2c-1-.6-1.9-1.4-2.6-2.3-.3-.4-1,0-.9.4,0,.4,0,.8.3,1.2.2.4.5.7.8.9-2.3.6-4.3,1.7-6.1,3.2-2.1,1.9-3.7,4.1-4.8,6.7-.5,1.3-1,2.7-1.3,4.1v.2c-.2.7-.5,1.5-.7,2.2-.5,1.2-1.2,2.3-2.2,3.3-.2.2-.2.4,0,.6,0,.1,0,.2,0,.4,0,.1.2.2.3.2,1.5.2,3.1.3,4.6.2,1.5,0,3.1-.3,4.6-.7,1.5-.4,2.9-.9,4.3-1.6,1.4-.7,2.7-1.5,3.9-2.4,1.1-.8,2-1.8,2.6-3,.7-1.2,1-2.5,1.1-3.8.1-1,.2-2.1.2-3.1.8.3,1.5.3,2.3,0,.5-.2.3-.9-.2-1,0,0-.1-.1-.2-.2-.8-.3-1.4-.9-1.8-1.6.3,0,.4-.2.5-.5.2-.1.4-.3.5-.5.1-.2.2-.4.3-.7,0-.2,0-.5,0-.7,0-.2-.1-.5-.3-.7,4.5-4.3,9.8-7.4,15.6-9.5,1.8-.6,3.6-1.1,5.5-1.5-1.2.6-2.4,1.2-3.5,2-1.4,1-2.7,2.2-3.8,3.5-1,1.2-1.8,2.5-2.3,4-.7-.1-1,.7-.8,1.3,0,0,0,.1,0,.2v.2c.2.1.3.2.5.2s.3,0,.4-.2c.1,0,.3,0,.4-.2.4-.4.2-1-.2-1.2,1.5-2.5,3.3-4.7,5.6-6.6.6-.5,1.3-.9,2-1.3-.6.7-1.1,1.4-1.2,1.6-1.5,2.3-2.8,4.8-4,7.4-.6,1.1-1.1,2.3-1.6,3.5-.4,1.1-.6,2.2-1,3.3-.1,0-.2,0-.3,0-.3,0-.6.2-.7.5,0,.2,0,.3,0,.5,0,.2.2.3.3.3,0,.1,0,.2,0,.4,0,.2.1.2.3.2.4,0,.6-.2.8-.5h.1c.2-.2.2-.4.2-.6,0-.2-.1-.4-.3-.5.7-1.7,1-3.5,1.9-5.2,1-2,1.9-4,2.9-5.9,1-1.9,2.2-3.6,3.6-5.1,0,0,.2-.2.3-.3.4-.2.7-.3,1.1-.5.7-.3,1.5-.8,2.2-1.1,1.6,0,3.3,0,4.9,0,1.5,0,3.1-.2,4.6-.6,0,0-.2,0-.3.1-1.8.9-3.6,2-5.3,3.1-3.4,2.4-6.2,5.4-8.5,8.8-1.1,1.8-2.4,3.4-3.4,5.2s-1.8,3.9-2.9,5.7c-1.8,3-3.6,6.2-3.2,9.8,0,.3.5.2.5,0,.1-1.9.6-3.7,1.3-5.5.7-1.7,1.8-3.2,2.6-4.9,1.8-3.9,4-7.5,6.5-11,2.6-3.6,5.7-6.6,9.5-9,1.1-.7,2.3-1.4,3.6-2.1-1,1.1-1.9,2.3-2.8,3.5-2.2,2.5-4.3,5-6.6,7.5-2.3,2.4-4.4,4.9-6.4,7.6-.9,1.3-1.7,2.6-2.6,3.9-.8,1.1-1.4,2.4-1.8,3.7,0,.3.3.4.4.1.7-2.6,2.8-4.8,4.3-6.9,1.9-2.6,4-5,6.2-7.4,1.8-2,3.8-3.9,5.4-6,1-1.3,2-2.5,3-3.7.6-.9,1.4-1.7,2.3-2.5-.2.5-.3,1.1-.4,1.7-.3,1.8-.8,3.6-1.5,5.4-.7,1.8-1.6,3.5-2.6,5.1-1.1,1.7-2.5,3.1-4.1,4.3-1.6,1.3-3.4,2.3-5,3.7-1.6,1.4-3.2,3-4.7,4.5-1.3,1.4-2.4,2.8-3.5,4.4-.7,1-2.2,3.5-3.4,3.8-.2.1-.2.5,0,.4.9-.5,1.6-1.1,2.1-2,1.3-1.6,2.6-3.3,4.1-4.8,1.4-1.5,3-3,4.6-4.5,1.7-1.6,3.6-3,5.5-4.3,3-2,5.2-4.7,6.7-8,.8-1.8,1.5-3.7,2.1-5.6.3-1.3.3-3.2,1-4.4.1,0,.2,0,.3,0h0c.1,0,.2,0,.3-.2,6.1-.8,12.1-1.9,18-3.4-.1,0-.3.2-.4.3-.9.8-1.9,1.5-2.9,2.2-3,2.3-5.9,4.1-8.3,7.2-2.6,3.1-4.5,6.6-5.7,10.5-.5,1.8-.8,3.7-1.2,5.5-.3,1.2-.4,2.4-.3,3.7,0,0,0,.1,0,.2,0,.2.3.3.4.1,1.5-3.4,3.6-6.4,6.2-9.1,2.6-2.6,5.8-4.4,8.4-7.1,3.3-3.5,6.8-8.9,6.2-14.1,3.3-.9,6.7-1.9,10-3.1-.8.4-1.6.7-2.2,1.1-1.1.6-2.1,1.4-3.1,2.2-1.5,1.5-3.1,3.5-2.3,5.8,1.3,3.6,7.2,1.2,7.6-1.8,0,0,0-.1,0-.2,0,0,0-.1-.1-.2,0,0-.1,0-.2,0,0,0-.1,0-.2,0-.3.2-.5,0-.4-.4.2-.3.5-.6.8-.8.4-.4.7-.8,1-1.2.8-1,1.4-2,1.7-3.2.2-.8.3-1.5.1-2.3,6.7-2.4,13.2-5.3,19.5-8.7,1.6-.9,3.2-1.7,4.8-2.7,0,0,0,.2,0,.2-2.6,2.2-5.1,4.6-7.3,7.1-.9,1.1-1.7,2.2-2.4,3.4-.5.5-1,1-1.6,1.5-1.1.9-2.4,1.6-3.7,2-.8.1-1.6.5-2.3,1-.7.5-1.2,1.1-1.6,1.9-.7,1-1.5,1.9-2.4,2.8-.7.6-1.5,1.1-2.3,1.6-1.5,1-2.5,2.3-3.1,4-.4.6,0,.8-1.3,1.2-.7.2-1.3.2-2,.2-.9,0-1.7.3-2.5.8-1.6,1.2-2.7,2.7-3.4,4.5-.6,1.5-.7,3-.2,4.5-.2,0-.5-.2-.8-.2-.7,0-1.3-.3-1.9-.7-.6-.4-1-.9-1.4-1.5-.1-.6-.3-1.1-.7-1.6,0,0-.2-.1-.3-.1-.1,0-.2,0-.3.2-.9,1.6-.6,3.5-1.2,5.3-.7,1.5-.8,3.1-.3,4.7.7,2,2.5,3.4,3.6,5.2.1.2.3.4.6.6.2.1.5.2.8.2-.5.7-.6,1.5-.3,2.3.3.5.7,1,1.2,1.3.5.3,1,.6,1.6.7.8.2,1.7.4,2.6.6.8.3,1.7.4,2.6.3.8-.1,1.4-.6,2.2-.7.5,0,1,0,1.4,0,.9.1,1.8,0,2.6-.3.5-.4.5-.9.2-1.4-.3-.4-.7-.8-1.2-1-.5-.3-1-.4-1.5-.6-.4-.2-.7-.5-1-.8,1.3.6,2.6,1,4.1,1.2,2.4.4,4,0,5.6-2.1,1-1.3,2.2-2.3,3.6-3.1,1.1-.6,2.1-1.4,2.8-2.4.9-1.4,2.2-4.1,1.6-5.7,0,0,0-.2-.2-.2,0,0-.2,0-.2,0-2.2.9-4.4,1.9-6.9,1.3-1.5-.6-3-.7-4.5-.6-1.7.4-3.3,1.2-4.6,2.3l-.3.2c.2-.2.4-.4.5-.6,0,0,.2,0,.2,0,2.7-2.6,5.6-4.8,7.4-8.1.8-1.5,1.5-3.1,2.2-4.7,0,1.1.3,2.3.6,3.3.3.9.7,1.8,1.2,2.7.4.6.7,1.2.8,1.9.2.7,0,1.3.3,2,0,.1.1.2.2.2.1,0,.2,0,.3-.2.2-1.4,1.2-2.5,1.7-3.8.4-1,.4-1.9.2-2.9-.5-2.2-2.9-3.7-4.7-4.9h0c.1-.2.2-.2.2-.3,0-.1,0-.2,0-.3.5-1.3,1-2.6,1.6-3.9,1.6-4,3.6-7.8,6-11.4,2.4-3,5-5.7,7.8-8.3,0,0,.2,0,.3-.1-1.2,1.3-2.2,2.7-3.1,4.1-1.4,2.7-2.4,5.6-2.8,8.7-.4,2.5-.5,5.4.8,7.6.8,1.3,2.3,3.1,4,2.8,0,0,0,.1,0,.2,0,0,0,.1.1.1h.4c.2,0,.3-.2.1-.3l-.2-.2c0,0,0-.2,0-.2,0,0-.1-.1-.2-.1,0,0-.1,0-.2,0-3.5-3.6,1.8-9.9,3.4-13.4,1.5-3.5,1.1-7.4.3-11,0-.2.1-.4.2-.5,14.1-8.6,26.5-19.2,37.2-31.8-1.5,3-2.9,6.1-4.6,9-3.2,4.9-6.5,9.6-10.2,14.1-3,4-6,8-8,12.7-1.9,4.7-4.9,9.4-5.2,14.8,0,.3.5.6.7.3,3.9-4.6,9.1-7.4,13.8-11.1,4.1-3.2,7.8-6.7,11.2-10.6,3.4-3.8,6.2-7.9,8.4-12.4,2.2-4.7,3.5-9.6,4-14.8.8-6.5,1-13,2.5-19.3h0c.2-.3.3-.6.5-.8.4.7.8,1.3,1.3,1.9l.4,1.1c.9,1.9,2.1,3.6,3.6,5.1,1.5,2.5,2.9,5,4.6,7.3,3.6,4.8,8.1,8.5,13.5,11.3-.2.4-.2.9-.2,1.4,0,.1,0,.2.2.3.9.4,1.9.5,2.9.2.1,0,.2,0,.2-.2s0-.2,0-.3c-.4-.8-1.1-1.3-2-1.5,0,0-.2,0-.2,0h-.2c.2-.3.4-.4.6-.4.5,0,1.1.2,1,.8,0,.2.3.3.4,0,.2-.8-.6-1.4-1.4-1.4-.5,0-.9.2-1.2.5-5.2-3-9.6-6.8-13.1-11.6-1-1.4-1.9-2.8-2.7-4.3,2.1,2,4.3,3.8,6.6,5.3,5.5,3.5,12.9,5.7,18.4,1.2,1.3-1.1,4.8-3.8,4.3-6,.1,0,.2,0,.3,0,.1.1.2.1.4,0,.2,0,.4-.1.5-.3,0,0,0-.1,0-.2,0,0,0-.1-.1-.1.2-.3.3-.7.2-1.1,0-.4-.2-.7-.4-1-.2-.3-.5-.5-.9-.6-.4,0-.7,0-1.1.2-.2.2-.3.3-.4.6-.1.2-.2.4-.2.7,0,.2,0,.5.1.7,0,.2.2.4.4.6.2.2.4.3.7.4,0,0,0,0,0,0,.4,1.4-1.5,3.1-2.3,4-1,1.1-2.2,2-3.4,2.7-4,2-8.7,1.3-12.6-.5-3.8-1.9-7.2-4.4-10.3-7.4-.6-.6-1.3-1.2-1.9-1.8l-.9-1.4c-.8-1.4-1.7-2.8-2.6-4.1l-.6-.8-.3-1c3.1,2,11.2-.8,11.6-4.2.6-4.5-8.1,0-11.8,1.2,4.8-7.9,8.8-16.2,12-24.9.4,3.6,2.9,6.7,3,10.6,0,.4.7.6.8.2.8-3.9,1.1-7.8.7-11.8-.3-2.2-1-4.2-2-6.1,1-3.2,2-6.5,2.8-9.9.6-1.4,1-2.8,1-4.4.5-2.2.9-4.4,1.3-6.6,0,.5,0,1,0,1.6.2,6,1,11.9,2.4,17.8,2.7,12.6,5.7,25.1,5.5,38,0,.4.2.6.5.7s.6,0,.8-.3c3.1-4.4,3.5-10,4-15.3.8-6.6,1-13.2.6-19.8-.6-7.3-2-14.4-4.1-21.4-.4-1.4-.8-2.8-1.2-4.3l.3.9c2.6,7.9,5.1,15.7,6.2,23.9.9,6.7,2.8,12.9,8.1,17.5,3.7,3.2,8.1,4.2,12.7,4.7,1.2.5,2.3.6,3.6.2.5-.2.3-1-.2-.8-.1,0-.2,0-.3,0l-.3-.7c-.2-.5-1,0-.8.3v.2c-.5,0-1.1-.1-1.7-.2-2.4-1.1-4.3-2.8-5.7-5-2.2-3.9-3.5-8.1-3.7-12.6-.5-7.4-.6-14.5-2.9-21.6-2.8-8.6-10.3-24.4-21.9-22.4.4-7.4.3-14.7-.4-22,2.3,5.1,6.9,9.5,11.4,12.5,4,2.8,8.5,4.6,13.4,5.2,4.4.5,8.8.4,13.2-.3,2.4-.4,6-1.2,6.4-4.2,0-.2,0-.3-.2-.4.3-.4.6-.8.7-1.2,0-.2,0-.4,0-.6-.1-.2-.3-.3-.5-.4-8-3.1-13.8-10.3-21.7-13.6-3.3-1.3-6.8-1.8-10.4-1.5-4.2.2-8.5.7-12.4-1.5-.1,0-.3,0-.4,0-.1,0-.2.2-.2.4-1.1-8.5-2.8-16.8-5.3-25,4.2,2.9,11.9,4.6,13-1.6,0-.3,0-.5-.3-.6-3.5-2.8-9.7.4-13.6-.5-1.9-5.9-4.2-11.7-6.8-17.3,2.1.6,3.8,2.2,5.5,3.6,1.6,1.2,3.2,2.2,5,3.1,3.7,2,7.6,2.9,11.8,2.6,5.2-.2,10.3.5,15.2,2.1,5.8,1.9,9,5.7,13.1,9.9.2.2.4.2.7.1.2,0,.4-.3.4-.5,0-5-2.7-10-5.4-14.1-1.5-2.3-3.2-4.4-5.3-6.1-2.1-1.8-4.3-3.2-6.8-4.4-5.6-2.4-11.3-3.3-17.4-2.7-2.8.3-5.5,1-8.2,2.1,2-1.8,3.8-3.7,5.6-5.7,2.7-3,4.8-6.3,6.4-10,1.3-3,3.1-6.4,2.6-9.8,0-.5-.9-.4-.8.2.3,3.2-1.5,6.5-2.7,9.3-1.5,3.5-3.6,6.7-6.1,9.5-2.3,2.8-4.8,5.3-7.7,7.5-.8.3-1.5.5-2.3.7,4.8-2.8,8.7-8.1,11.2-12.7.2-.5-.4-.9-.7-.4-2.6,4.9-7,10.7-12.3,13.1,2.4-2,3.8-4.9,6.2-6.9.4-.3-.2-1-.6-.6-2.6,2.3-4.1,5.7-7,7.5-.1,0-.2.2-.2.3h-.2c1.9-7.4,3.6-14.7,10.9-18.6,4.8-2.6,10.5-4.2,11.8-10.2.1-.5-.7-.8-.8-.2-1.6,7.4-10,8-14.8,12.1-4.9,4.2-6.3,10.6-8,16.6,0,0-.1,0-.2,0,0,0,0,0,0,0-.8-1.7-1.7-3.3-2.5-5-5-9.4-10.9-18.2-17.7-26.4-6.8-8.2-14.5-15.2-22.9-21.8-.3.8-.8,1.5-1.1,2.2l10.6,8.9M362.8,136.6c.6-3,4.4-3.6,7-4.4.3-.2.8-.2,1.2-.3-1,1.2-2.3,2.3-3.7,3.1s-2.9,1.3-4.5,1.6ZM377.5,145.4c-.3,3.7-1,7.4-1.9,11-.1.5.7.8.8.2.9-3.7,1.6-7.5,2-11.3.1-1.2.3-2.5.4-3.7,1.2,5,1.2,10,0,15.1-1.5,5.2-4,11.4-8.1,15.6,1.5-3.2,1.8-7.3,2-10.4.3-4.6-.2-9.2.5-13.8.5-3.5,1.8-8,4-11.1.3,2.8.4,5.6.4,8.3ZM386.8,242.2c.3,0,.6,0,.8.1-.1,0-.2.1-.4,0-.4,0-1.7.3-2.1,0,0,0,0,0-.1,0,.6,0,1.2-.1,1.7,0ZM384.3,241.3c-.1.1-.2.3-.3.4l-.7-.5c.3,0,.7,0,1,0ZM379.7,241.5c-.4,0-.8.2-1.1.4.3-.3.7-.5,1.1-.4h0ZM390.8,251.9c.2.7.3,1.4.3,2.1,0,.7-.1,1.4-.4,2.1-.2.7-.6,1.3-1,1.8s-1,1-1.5,1.4c-1.8,1-4.1.5-5.7,1.9-.5.5-1,1.1-1.3,1.8-1.7,2.1-3.7,2.3-5.6.9-1.6-1.2-2.7-3-3.9-4.6-.2-.2-.5-.2-.7,0-.2.2-.3.4-.2.7.6.9,1.2,1.8,1.9,2.6.3.5.4.9.6,1.4s.2,1,.1,1.5c0,.5-.2,1-.3,1.5s-.4.9-.8,1.3c-1.9,2.4-7,4-8.4,0-.8-2.2-.9-3.5-3.4-4.7-1.7-.9-3.6-1.1-5-2.5-.9-.8-1.5-1.8-1.9-2.9-.4-1.1-.4-2.3-.2-3.5.4-1.9,1.3-3.6,2.6-5,.4-.4.9-.7,1.5-.9.6-.2,1.2-.2,1.8,0,1.3.7,2.5,1.3,3.8,1.8.1,0,.3,0,.4,0,0,0,.2,0,.2,0,0,0,.1,0,.2-.2,0,0,0-.2,0-.2,0,0,0-.2,0-.2-.9-1.6-3.3-2.3-5.2-2.4l-.2-.2c-3-2.7-.7-4.6,1.4-6.4,2-1.8,2.8-4.2,4.5-6.4,1.9-2.4,6.2-4.7,9.3-3.7,5.6,1.7,4.4,6.9,3.2,11.1,0,.2,0,.3,0,.5,0,.2.2.3.3.4-2.3,1.8-4.4,5-6.7,7-.4.3.2.9.6.6,3.8-3.2,6.9-9.6,12.2-6.8,0,0,.1.1.2.1.2.1.4.2.6.4,3.1,2.7,6.3,6.6,6.7,7.8ZM400.2,237.2h.1c.3,3.2.8,6.8-1.5,9.4-1.3-3,1.1-6.2,1.1-9.3,0,0,.1,0,.2,0ZM220.7,361.7c0-.5,0-1,0-1.6,0-.5.2-1,.5-1.5s.5-.9.9-1.3c.3-.4.7-.7,1.2-1,1.6-1.1,3.5-1.6,4.8-3.1.8-.9,1.4-2,1.9-3.1,0,.9,0,1.9.2,2.8.5,1.5,1.9,2.2,2.6,3.6.2.4.3.9.3,1.3,0,.5,0,.9-.2,1.4s-.3.9-.6,1.2c-.3.4-.6.7-1,.9-.4,0-.8,0-1.1.2-.1,0-.2,0-.3.1-.4,0-.8.1-1.2.3-.4.2-.7.5-.9.9,0,0,0,0,0,.2-.5.5-.9,1.2-1.2,1.8,0,0-.2,0-.3,0,.2-.6.5-1.3.8-1.8.5-.9,1.1-1.8,1.7-2.6.2-.2-.2-.4-.3-.2-.8,1.1-1.5,2.2-2.1,3.5,0,.2-.2.4-.3.6,0-.9.1-1.9.4-2.8.3-1.7.9-3.3,1.8-4.7.2-.2,0-.5-.3-.3-1.4,1.4-2,4.2-2.3,6-.1.8-.1,1.6,0,2.5-.2,0-.3,0-.5,0-.4-1-.6-2.1-.6-3.2-.1-1.3,0-2.6.4-3.8,0-.3-.3-.4-.4-.1-.6,1.7-.7,3.3-.5,5.1,0,.8.3,1.5.6,2.2-.1,0-.2.1-.4.2v-.2c-1-.9-1.5-2-1.6-3.2,0-.3-.4-.2-.4,0,0,1,.4,1.9.9,2.7.2.3.4.5.7.8,0,0-.2,0-.3.1-.8-1.4-2.6-2.1-3-3.9h0ZM208.8,380.3c1.1-1.7,1.9-3.6,2.2-5.7.3-2.6-.7-5.4.2-8,1.8-5.3,9.8-5.1,11.8-.1-.3.5-.5,1-.6,1.6-.8-.3-1.6-.4-2.4-.4-1,0-2,.2-2.8.7-1.2.7-2.4,1.6-3.4,2.6-.2.2.1.5.3.3,1.3-1.2,2.8-2.1,4.5-2.6,1.3-.4,2.6-.2,3.8.4,0,.2,0,.3.1.4-2.4-.4-5.2,1.1-6.7,2.8-.2.2.1.5.3.3.8-.8,1.7-1.4,2.8-1.7.9-.4,1.8-.7,2.8-.7-1,.3-1.9.8-2.8,1.4-1.4.9-2.5,2.2-3.3,3.7-.1.2.2.5.3.2.7-1.1,1.6-2.1,2.7-2.9,1.1-.8,2.3-1.4,3.6-1.7-.4.5-.7,1-1,1.6h0c-.4.6-.7,1.1-1.1,1.6-.7,1-1.4,2.1-2,3.2-.2.2-.4.4-.5.6-.2.2-.4.5-.6.7-2.5,1.5-5.5,1.4-8.3,1.7ZM229.9,378.7c0,.7-.7,1.4-.6,2.2,0,1.6,1.3,2.5,2.7,3.1h.1c0,0,.5.4.5.4l-.4.2c0,0-.1,0-.2,0-2.5,1.1-5.1,1.6-7.8,1.6-3.4,0-9.1-1.5-6.8-6.3.2-.3.4-.7.6-1,0,0,0,0,0,0,.9-.6,1.8-1.4,2.5-2.3,1.1-1.4,2-2.9,2.7-4.5.1-.2.3-.3.4-.5v.2c-.1.5-.3,1-.4,1.3-.7,1.8-1.8,3.8-1.7,5.9,0,.3.4.3.4,0,.1-1.8.7-3.5,1.6-5.1v.5c-.3,1.5-.5,3.1-.6,4.6,0,.6,0,1.1.2,1.7.2.6.4,1.1.7,1.5.3.5.7.9,1.2,1.2s1,.6,1.5.7c.3,0,.4-.3.1-.4-.5-.1-1-.4-1.4-.7-.4-.3-.8-.7-1.1-1.2-.3-.5-.5-1-.5-1.5s0-1.1,0-1.6c.2-.9.3-1.9.4-2.9.2-1.1.2-2.2.3-3.3v-.6c0,.6.2,1.3.4,1.9.2.8.5,1.6.8,2.4.4.9,1,2.6,2.3,2.4.3,0,.2-.4,0-.4-1.2.2-1.9-2.4-2.2-3.2-.3-.9-.4-1.9-.4-2.9.2,0,.4,0,.5,0,1.9,1.3,4.3,3.9,4.1,6.4ZM234.4,374.4c-1.1.2-2.2.2-3.3,0-1.1-.3-2.1-.7-3-1.4-.3-.3-.7-.6-1-.9.4-.2.8-.4,1.2-.7.4-.2.7-.5,1-.8.2.1.4.2.6.3.9.3,1.9.5,2.9.6.3,0,.4-.3.1-.4-.8-.2-1.5-.4-2.3-.7-.2,0-.5-.2-.8-.3.1-.2.2-.4.3-.6.1-.3.2-.7.1-1,.5-.1,1.1-.2,1.6-.3,1.6-.2,3.2-.7,4.9-.8.3,0,.3-.4,0-.4-1.5.2-3,.4-4.4.7-.7.1-1.4.2-2.1.4,0-.1-.1-.3-.2-.4.2-.4.5-.7.8-1,.9-.8,2-1.3,3.2-1.6.2,0,.2-.5,0-.5-.9,0-1.7.2-2.5.7-.8.4-1.4,1-1.9,1.8-.5-.7-1.2-1.2-2-1.5,1.1-1.6,2.7-3,4.7-2.8,1.2.1,2.4.8,3.6,1,1.2.2,3.2-.1,4.5.4,1,.3,2.1,1.8,1.7,2.7-.7.7-1.4,1.2-2.3,1.7-1.5,1.1-2.8,1.8-3.4,3.4-.2.4.5.7.5,1.1-.2.7-1.8,1.3-2.6,1.5h0ZM230.5,392.1c-.3.2-.6.3-.9.5-.2,0-.7.6-1,.8l.2-.3c.3-.5.7-.8,1.2-1,.2,0,.4,0,.6,0ZM230.4,395.2c-.2.6-.4,1.2-.5,1.8-.4,1-.9,1.9-1.4,2.9-.1.2.3.4.4.1.2-.5,2.4-3.8,2.2-4.9.4,0,.7,0,1.1-.1-.4,1.9-1.1,3.7-2,5.4-1.1,1.5-2.2,3-3.4,4.4-.2.2.2.4.3.2,1.3-1.5,2.6-3.1,3.7-4.8.9-1.6,1.6-3.3,2.1-5.1h0c0-.1.2-.1.3-.1.1,1.2,0,2.5-.2,3.7-.2,1.5-1,2.6-1.2,4,0,.3.3.4.4.1.2-.8.5-1.6.9-2.3.3-.9.6-1.8.8-2.8.1-.6.2-1.2.3-1.8.1,1.2.1,2.4,0,3.6-.3,3.6-2,5.8-5,7.6-3.6,2.3-7.6,3.5-11.9,3.5,1.4-.8,2.6-1.8,3.8-2.8,1.2-1.1,2.2-2.3,3.1-3.6.9-1.3,1.7-2.7,2.3-4.1.6-1.5,1.1-3,1.4-4.5.8-.1,1.7-.2,2.5-.3ZM226.9,395.2h0c-.7.3-1.4.2-2.1.4-.1,0-.2.1-.2.2,0,.1.1.2.2.2.6-.1,1.3,0,1.9-.2,0,.3-.1.6-.2.9h-.2c-.3.1-.5.2-.8.2-.5,0-1,0-1.5,0-.3,0-.4.3-.1.4.7,0,1.3,0,2,0,0,0,.3,0,.4,0l-.3.8c-.9.2-1.8.3-2.7.3-.3,0-.3.4,0,.4.9,0,1.7-.1,2.6-.3-.1.3-.2.6-.3.9-.6.1-1.3.2-1.9.2-.3,0-.3.4,0,.4.6,0,1.2,0,1.7-.1,0,.2-.2.4-.3.7-.8.3-1.7.4-2.5.3-.3,0-.4.3-.1.4.8.1,1.6,0,2.4-.2-.1.3-.3.6-.4.8-.8.2-1.6.4-2.4.5-.3,0-.2.4,0,.4.7,0,1.3-.2,2-.3l-.4.7c-.9.3-1.8.5-2.8.6-.2,0-.2.4,0,.4.8,0,1.6-.2,2.4-.4-.2.3-.4.6-.7.9,0-.2,0-.3-.2-.3s-.3,0-.3.2c-.7.6-1.5.8-2.4.8-.3,0-.2.4,0,.4.8,0,1.5-.2,2.2-.6-.2.3-.5.6-.8.9,0,0,0-.1,0-.1,0,0-.1,0-.2,0-.6.4-1.4.5-2,.9,0,0-.1.2,0,.3s.1.1.2.1c.5-.3,1.1-.5,1.7-.7-1.6,1.6-3.4,2.9-5.5,3.9,2.6-3.5,2.6-8.2,4.9-12,1.4-2.4,3.4-4.2,5.9-5.4.9-.4,1.8-.7,2.7-.8,0,0-.1,0-.2,0-.4.4-.7.8-.9,1.3-.1-.2-.5-.2-.4,0h0c-.3.2-.6.2-.8.3-.1,0-.2,0-.3.1,0,0-.1,0-.2,0-.3.1-.6.1-1,.1-.3,0-.4.3-.1.4.4.1.9.1,1.3,0,0,.3.1.4.4.5,0,.1,0,.2,0,.4ZM262,376.3c-.2,0-.3,0-.5,0-2.3-.7-4.4-1.7-6.3-3.1-4-2.9-7.1-6.5-9.2-11,3.3,3,6,6.7,9.7,9.3,1.7,1.2,3.6,2.2,5.2,3.5.4.3.8.8,1.3,1.2,0,0-.2,0-.3,0ZM262.8,376.2c-.7-.6-1.4-1.3-2.1-2.1-1.6-1.4-3.5-2.3-5.2-3.5-3.4-2.5-6-5.7-9-8.5.3,0,.5,0,.8,0,1.1,0,2.1.4,3.1.9,2.3,1,4.4,2.3,6.3,3.9,2.8,2.4,5.6,5.5,6.8,9.1-.2,0-.4,0-.7,0h0ZM278.7,375.2c-1.7.3-3.3,0-4.7-1-.2-.2-.4.2-.2.3.6.4,1.2.8,1.9.9-.9,0-1.7-.2-2.6-.4-1.1-.3-2.1-.7-3.1-1.2-.8-.4-2-1.1-.4-1.2,1.9,0,3.8.4,5.6,1.1,1.4.4,2.8.8,4.3,1.2h-.7ZM283.5,363c0-.3,0-.5,0-.8.5-.9,2.2-1,3-1,2.4-.3,4.7-.1,7,.5,2.2.5,4.3,1.3,6.3,2.2.9.5,1.7,1,2.5,1.6.9.7,2.4,1.6,2.9,2.7l-.8.3c-3.5-1.7-7.2-3-11-4-1.9-.4-3.9-.7-5.8-1.1-1.3-.4-2.7-.6-4.1-.4h0ZM297.8,369.8c1,0,2,.1,3,0-1.6.5-3.2,1-4.8,1.5-1.8-.2-3.6-.6-5.3-1.3-1.4-.6-2.7-1.4-3.9-2.4-1.2-1-2.1-2.2-2.9-3.5h0c.9.5,1.8,1.1,2.8,1.5,2.2,1,4.5,1.8,6.9,2.2,2.4.6,4.8,1.1,7.2,1.3.4,0,.9,0,1.4,0-.6.1-1.2.2-1.8.2-.9,0-1.8,0-2.7-.1-.3,0-.3.5,0,.5h0ZM300.3,368.6c-2.1-.3-4.2-.7-6.3-1.2-1.9-.4-3.8-.9-5.7-1.6-1.1-.4-2.2-.9-3.2-1.5-.4-.3-.9-.5-1.3-.9,1.6-.3,3.4.4,5,.7,1.8.3,3.7.7,5.5,1.1,3.2.9,6.4,2.1,9.4,3.6-1.2,0-2.3,0-3.5-.2h0ZM287.3,384.4c-1.6,1.5-3.4,2.9-5.1,4.4-2,1.8-3.7,3.9-5,6.3,0,.1,0,.2,0,.3,0,0,.2,0,.3,0,1.5-2.6,3.4-4.9,5.8-6.8,1.9-1.5,3.8-3.1,5.6-4.8,1.9-1.8,3.4-3.9,4.5-6.4-1,4.8-4.3,9-7.8,12.2-2.5,2.2-5.5,4-7.6,6.6-1.8,2.2-3.3,4.6-4.4,7.3.2-1.3.5-2.6.9-3.9.4-1.9.7-3.9,1.3-5.8,1.6-4.3,4-8,7.2-11.2,2.5-2.1,5.1-4.1,7.8-5.9,1-.7,1.9-1.5,2.7-2.3h.2c-.8,3.9-3.3,7.2-6.4,10ZM306.3,367.9c-1.1-1.5-2.5-2.9-4-4.1-1.4-1.3-3-2.4-4.7-3.3-1.7-.8-3.4-1.5-5.3-2.1-.9-.4-1.8-.8-2.7-1.2-1.1-.3-2.1-.4-3.2-.5-.3,0-.3.4,0,.4,1.1,0,2.1.2,3.1.5.8.3,1.6.7,2.4,1.1,1.8.7,3.5,1.5,5.2,2.4.9.6,1.9,1.2,2.8,1.8-1-.5-2-.9-3.1-1.2-3-1.2-6.2-1.7-9.4-1.6-3.3-.7-6.3-2-9.1-3.9-1.5-1.1-2.8-2.3-4.1-3.6-1-.9-1.9-1.8-2.8-2.8.7.5,1.5.9,2.2,1.3,1.5.8,3.1,1.4,4.7,1.8,3.4.8,7,.5,10.4.8,2.1.3,4,.9,5.9,1.7s3.6,2,5.1,3.5c1.3,1.2,2.6,2.4,3.8,3.7,1.3,1.6,2.2,3.3,2.7,5.3h0ZM292.5,406.5l-.2-.5c-.2-.3-.4-.6-.5-.8-.4-.5-.8-1-1.2-1.5-.6-.6-1.1-1.3-1.4-2.1-.3-.8-.5-1.6-.4-2.5.3-1.1.6-2.2,1-3.3,0-1.1.2-2.2.5-3.3.2.6.4,1.1.6,1.6.4.6,1,1,1.6,1.2,1.1.5,2.3.5,3.1,1.2,1,1.8,2.4,3.2,4.3,4.2-.3.2-.6.4-.8.6-.9-.8-1.8-1.5-2.8-2.2-.2-.1-.5.2-.2.3,1,.6,2,1.3,2.8,2.1,0,.2-.2.3-.2.5-1.7-.2-3.3-.7-4.8-1.5-.2-.1-.5.2-.2.4,1.6.9,3.3,1.4,5,1.6,0,.1,0,.2,0,.3-1.5.4-3,.5-4.5.8-.3,0-.2.5,0,.4,1.5-.2,3-.4,4.6-.7,0,.2.2.3.3.4,0,0-.1,0-.2,0h0c0-.2-.1-.2-.2-.2,0,0-.1.1-.1.2-1.7.3-3.1,1.1-4.2,2.4,0,0-.1,0-.2,0h-1.7ZM303.9,408.5c0,0,.1,0,.2,0,.2.2.4.3.6.5.5.3,1,.4,1.5.7.3.2,1.1.8.9,1.3-.1.2-.7.3-.9.3-1.3,0-2.5,0-3.8.3-.5.2-1,.4-1.6.5-.9,0-1.8-.1-2.7-.5-1.2-.2-2.3-.5-3.4-1-2-1.2-.7-3.1.8-4.1.7-.5,1.5-.8,2.3-1,.1,0,.2,0,.3,0h0c.2,0,.3-.2.5-.1.4,0,.7,0,1.1,0-.2.1-.4.3-.6.4-.2.2-.4.4-.6.7-.1.2-.2.7-.4.9-.2.2,0,.5.3.3s.2-.2.2-.4c.2-.5.4-.9.8-1.2.1-.1.3-.2.4-.3-.2.5-.3,1.1-.3,1.6s.2,1.1.5,1.6c0,0,.2.1.3,0,.1,0,.1-.1.1-.2-.5-.9-.5-1.9-.1-2.8.5.8.9,1.8,1.2,2.7,0,.3.4.2.4,0-.1-1-1-2-1.4-3.1,0,0,0-.2.2-.2.5.3.9.6,1.2,1,.4,1,1,1.8,1.8,2.4h0ZM312.9,397.1c1.5.5,3.1.7,4.7.4.8-.2,1.5-.4,2.3-.8.5-.2,1-.7,1.3-.4h0c-.9,2.2-2.8,3.4-4.5,4.8-.2.1,0,.5.3.3,1.7-1.1,3.2-2.6,4.3-4.3,0,.3-.2.5-.2.7-.6,2.1-1.8,3.7-3.7,4.9-1.4.7-2.7,1.7-3.8,2.9-.6.9-1.3,1.7-2.2,2.3-1,.4-2,.4-3,.2-1.7-.2-3.8-.6-5-1.9,0,0,0,0-.1,0v-.2c-.2-.5-.3-1-.4-1.4,1.1.4,2.1.4,3.2,0,.2-.1,0-.5-.2-.4-1,.4-2,.4-3,0,0,0,.1-.1.2-.2,0-.1.2-.2.2-.4,1.2-.2,2.3-.4,3.4-.7.3,0,.2-.5,0-.4-1,.2-2.1.6-3.2.7,0-.3,0-.6-.2-.9.9-.4,1.8-.8,2.8-1,.1,0,.2-.1.2-.2s-.1-.2-.2-.2c-1,.2-2,.6-2.9,1,0-.2-.1-.4-.3-.6.8-1.3,2.8-2.2,4.1-2.9.9-.6,1.9-1,2.9-1.2,1.1-.2,2.1-.2,3.2,0h0ZM302.2,400.6c0,0,0,.1,0,.2-.1,0-.3-.1-.4-.2.2-.3.3-.5.4-.8.5-.9.7-1.8,1.2-2.7.1-.2-.2-.5-.4-.2-.4.8-.6,1.7-1.1,2.5,0,.2-.3.7-.5,1h-.1c0-1.1,0-2.1.1-3.1,0-.3-.4-.3-.4,0,0,.8-.2,1.7-.2,2.6-.8-.9-1.4-1.8-1.9-2.9-.1-.3-.5,0-.4.2.5,1.3,1.3,2.4,2.3,3.3,0,0-.1,0-.2,0-1.4-.7-2.6-1.7-3.6-3,0-.1,0-.2,0-.3-.2-.4-.4-.7-.7-1-.4-1-.6-2-.6-3,0-1.1.3-2.1.8-3,.4-.9,1-1.7,1.8-2.4.8-.6,1.7-1.1,2.7-1.3,1.2-.2,2.9,0,3.8-.9.3-.3.5-1.1.9-.4.1.3-.2,1.6-.2,2,0,1.3.2,2.4.8,3.5.5.9.7,1.9.7,2.9,0,1-.4,2-1,2.9-1.2,1.5-2.5,2.9-4,4.2h0ZM317,389.8c-.7-1.1-1.1-2.3-1.3-3.6.9,1.9,2.3,3.7,2.5,5.7-.3-.7-.7-1.4-1.2-2.1ZM319.5,387.6c1,1.8,0,4-.7,6,0-.2,0-.5-.1-.7.5-3.1-2.4-5.3-3-8.3v-.4s0-.1,0-.1c.8,1.4,2.9,2.1,3.8,3.6ZM313,388.3c-1.6,2.9-3.5,5.4-5.9,7.7.5-.8.7-1.7.8-2.6,0-.9-.1-1.8-.6-2.7-.6-1-.9-2-.9-3.2.2-1,.3-1.9.2-2.9,0-.2-.1-.3-.2-.5,1.8-.6,3.5-.9,5.4-1.5,1.7-.4,3.2-1.2,4.4-2.5.3-.4.6-.7.8-1.1-1.3,3.1-2.5,6.3-3.9,9.3h0ZM316.5,373.9c.8-.3,1.5-.7,2.3-1.1-.8,1-1.5,2-2.3,3-1,1.3-2.1,2.5-3.3,3.6-1.3.9-2.6,1.7-4,2.4,0,0-.1.2,0,.3,0,.1.1.1.2.1,2.6-1.2,4.8-2.8,6.7-4.8.8-1,1.7-2.1,2.5-3.2.4-.6.9-1.2,1.4-1.7h0c-.3.7-.6,1.3-.9,1.9s-.6,1-.9,1.4c-.8,1.9-2,3.5-3.6,4.9-1.6,1-3.3,1.5-5.1,1.7-1.4.2-2.7.6-3.9,1.2.9-1.7,2.7-2.6,4.3-3.7,1.4-1.1,2.6-2.3,3.5-3.8.8-1.2,1.9-1.9,3.3-2.3ZM334.3,364.2c-.3,3-1.7,5.4-3.1,8.1-1.6,2.9-3.3,6.6-1.1,9.3-.8-.4-1.5-1-2.1-1.8-.6-.7-.9-1.6-1.1-2.5-.4-2.9-.2-5.6.7-8.4.7-2.7,1.9-5.2,3.6-7.5.3-.5.7-.9,1-1.4-.3.9-.7,1.9-1,2.9-.4,1.4-1,2.8-1.4,4.2-.2.7-.5,1.4-.7,2.1s-.2,1.6-.5,2.3c0,.2.3.4.4.1.5-1.2.6-2.5,1-3.7.4-1.2,1-2.8,1.5-4.1.6-1.8,1.3-3.6,2-5.4.1,0,.3-.2.4-.3.5,2,.6,4.1.4,6.2h0ZM306.3,370.3c.4,1.1-.5,2.8-.9,3.7-.8,1.2-1.9,2.1-2.7,3.2-.8,1.2,0,1.7.8,1.7-.4.6-.9,1.2-1.6,1.5-.7.4-1.4.6-2.2.6-1.6,0-2.3-1-2.2-2.5.1-1.2.6-2.2,1.4-3,1.2-1.4,2.6-2.6,4.2-3.4.4-.2.9-.4,1.4-.7-1,1.6-2.6,2.8-3.7,4.4-.9,1.3-1.8,3.7.5,4,.3,0,.3-.4,0-.4-2.9-.3,1.7-4.9,2.3-5.5.6-.7,1.2-1.4,1.6-2.1.2-.4.4-.8.6-1.2.2,0,.4,0,.5-.1h0ZM331.5,356c-1,0-2-.3-2.9-.7-1.8-.5-3.5-1.2-5.2-2-1.2-.7-2.5-1.2-3.8-1.5-1.8-.3-3.6-.4-5.4-.5-.3,0-.3.4,0,.4,2.1,0,4.2.4,6.3.8,1.6.6,3.2,1.4,4.7,2.2,1.6.7,3.2,1.2,4.9,1.5.3,0,.6.1.9.1l-.8.5c-.8.2-1.6.2-2.3.1-.8-.1-1.5-.4-2.2-.8-1.6-1.1-3.3-2-5-2.7-1.9-.6-3.8-.8-5.8-.5-1.6,0-3.2.3-4.7,1,1.7-1.6,3.6-2.8,5.7-3.9,1.2-.5,2.5-.7,3.8-.6,1.3,0,2.5.4,3.7,1.1,2.8,1.5,5.4,4.7,8.5,5.4,0,0-.2.1-.3.2h0ZM357.6,336.6c-.8.5-1.7.9-2.6,1.3-4.4,1.8-8.8,1.6-13.4,1-4.3-.7-8.7-1.1-13.1-1.3-1.9,0-3.8.4-5.7.9-1.4.4-2.7.8-4,1.3,0,0,0,0-.2,0,1.5-1.2,3.2-2,5-2.5,2-.7,4-1.3,6-1.8,2.3-.7,4.7-1.2,7.1-1.5,2.2-.2,4.4,0,6.5.4,4.9.9,10.4,2.4,15.2,1.3-.4.4-.7.7-1,1h0ZM361.1,333.2c-.7.7-1.3,1.3-2,1.9-6,1.9-13.2-1.2-19.4-1.6-4.3-.2-8.7,1.1-12.8,2.4-2.3.6-4.5,1.4-6.7,2.4,0,0,.2-.1.2-.2.7-.4,1.3-.8,1.9-1.2,2.2-1.3,4.2-2.8,6.4-4,4.6-2.8,9.6-3.1,14.8-2.3,2.5.4,5.1.5,7.6,1.1,1.9.5,3.9.9,5.8,1.1,1.3.2,2.7.3,4,.3h0ZM409.6,334.4c0,0,.2,0,.3,0,.3.2.6.4.8.7-.6,0-1.2,0-1.9-.1,0-.3,0-.6.1-.9l.6.4ZM421.6,316.9c-.4-.4-.6-1.3.1-1.5.2,0,.4,0,.6,0,.2,0,.3.2.4.4.2.3.2.5.2.8,0,0-.1,0-.2,0,0,0,0,0-.1.1,0,.2-.2.4-.3.6-.3,0-.5-.2-.7-.4ZM363.8,314.8c4.7-1.6,9.6-2.2,14.5-1.9-4.5.3-8.9,1.9-13.2,3.2-4.9,1.3-9.7,3.2-14.1,5.7,2.9-4,8.3-5.5,12.8-7ZM365.3,316.9c4.1-1.2,8.2-2.8,12.5-3.2-.5.7-1,1.4-1.5,2.1-3,2.9-8,3.6-11.8,4.5-4,1-8,1.5-12.1,1.5,4.1-2.1,8.4-3.8,12.9-5ZM367.2,322.9c-3.1,1.1-6.3,1.7-9.6,1.8-1.9.1-3.7-.2-5.5-.9-.4-.3-.9-.6-1.2-.9,5.1,0,10.1-.7,15.1-2,2.9-.5,5.7-1.4,8.4-2.7-2.1,2.1-4.5,3.6-7.2,4.7ZM378.3,339.4c-4,9.5-11.3,17.4-19.2,23.9-4.7,3.8-10.1,6.7-14.2,11.2.6-4.3,2.7-8.1,4.5-12,.9-2.3,2-4.5,3.2-6.6,1.4-2.1,2.9-4.2,4.4-6.2,3.4-4.4,6.8-8.9,9.9-13.5,2.9-4.3,4.7-9.3,7.3-13.8l.4-.6c1.2-1.5,2.4-3.1,3.6-4.6,0,1-.2,2.1-.3,3.1-.6,4.3-3,8.3-5.1,12-2.4,4-5.1,7.7-7.8,11.6-2.8,4.1-5.3,8.5-8,12.6,0,.1,0,.2,0,.3.1,0,.2,0,.3,0,2.8-4.2,5.3-8.5,8.3-12.5,2.8-3.7,5.5-7.5,7.8-11.5,2-3.4,4.4-7.2,5.1-11.1.3-1.8.4-3.7.6-5.6,1.4-1.9,2.7-3.8,4-5.7.1,0,.2,0,.3-.1.2-.3.3-.6.4-.9l.3-.4c-2.3,10.2-1.5,20.9-5.6,30.7ZM379.1,312c-5.8-.4-11.5.4-16.9,2.4-4,1.3-8.4,2.9-11.2,6.2,1.1-2.3,2.7-4.2,4.5-5.9,2.9-2.4,6.5-3.5,10.1-4.4,3.4-.8,6.8-1.2,10.3-1.2,1.8,0,3.6,0,5.4-.4-.7,1.2-1.5,2.2-2.2,3.3h0ZM396.2,302.1c1.7,0,1.4,1.2.5,2.2-.9.9-2,1.5-3.3,1.8-1.3.4-6,1.6-6.8-.4,3.3-.4,6.2-3.5,9.6-3.6h0ZM402.5,279.5c.2,2.8,0,5.5-.3,8.2-1.1-4.1-4.1-7.7-1.9-12,0-.1,0-.2,0-.4l.6-1.6c.9,1.8,1.5,3.7,1.6,5.7ZM399.7,269.6c-.1-.2-.3-.2-.5-.1-.2.1-.3.3-.2.5l.3.7c-2.5,5.1-5.7,9.6-9.7,13.6-9.6,9.3-22.4,12.8-34.8,16.9-3.1,1-6.3,2-9.3,3.3-2.6,1.2-4.9,2.6-7.1,4.4.2-.2.3-.4.5-.7.1,0,.2,0,.3-.1,3.6-5.3,10.2-7.5,15.5-10.7,6.2-3.7,12.3-7.3,18.3-11.1,5.5-3.5,10.9-6.9,16.5-10.1,3.9-2.2,7.5-4.8,10.7-8l-.5,1.4ZM401,265.2l-.3,1.1c-4.1,4.7-9.3,7.8-14.8,10.8-6,3.3-11.6,7.3-17.4,10.9-5.8,3.6-11.5,7.2-17.4,10.4-3.3,1.6-6.4,3.4-9.3,5.6,2-3,4-5.9,6.2-8.7,4.5-5.7,10.6-9.7,16.6-13.8,5.8-4.1,11.9-7.8,18.2-11.1,3-1.5,6.1-2.8,9.3-3.7.9-.2,7.4-2,8.9-1.4ZM408.2,237.1l.3.3-.5,2.3.2-2.5ZM415.9,255.9c1.6,6.5,2.7,13.1,3.1,19.7.3,5.8,0,11.5-.6,17.2-.4,4.4-.7,9.3-2.6,13.4,0-11-2.3-21.7-4.7-32.3-1.5-5.9-2.5-11.9-3.2-18-.3-4.4-.1-8.7.7-13,.3,3.6.8,7.1,1.5,10.7.5,3.1.8,6.1,1,9.3,0,2.3.5,4.5,1.5,6.5.2.5,1,0,.8-.3-1.5-2.5-1.4-5.5-1.6-8.3-.2-2.5-.6-4.9-.9-7.4-.4-3.7-.5-7.6-.6-11.3.8,2.6,1.4,5.3,2.1,7.8,1.1,4,2,8,2.7,12.1,1.4,8.6,2,17.2,1.8,25.9,0,.5.8.6.8,0,.2-8.7-.4-17.4-1.8-26.1-.7-4.3-1.6-8.5-2.8-12.7-.8-2.8-1.3-5.9-2.3-8.7.9,1.8,1.6,3.7,2.1,5.7,1,3.2,2,6.4,2.9,9.7ZM417.8,243.2c2.1,3.1,4,6.4,5.6,9.8,2.6,5.8,3.9,11.9,3.9,18.2,0,4.9-1,10.3,1.7,14.7.3.4,1,0,.7-.4-3.3-5.3-1.2-12.6-1.8-18.5-.6-6.1-2.3-11.9-5.2-17.3-1.9-3.6-4-7-6.4-10.2-1.3-1.9-2.9-3.4-4.8-4.6,2,.2,3.8.9,5.5,2,2.7,2.1,4.9,4.7,6.6,7.7,4.2,7,6.9,14.5,7.8,22.7.9,7.4.5,14.7,4,21.6,1.2,2.2,2.8,4.2,4.8,5.7-4.5-.8-8.6-2.4-11.9-6.2-5.1-6-5.2-13.1-6.7-20.4-1.5-7.3-4.1-14.4-6.5-21.4-1.1-2.8-2.5-5.5-4.1-8.1-.4-.7-.8-1.4-1.2-2.1v-.3c0-.2-.2-.3-.4-.4l-.2-.5c3.6.4,6.6,5.2,8.5,7.9ZM408.9,236.4h0c-.2,0-.4-.2-.6-.3v-.6c.2.3.4.6.6.9ZM402,225.6c0,.2.2.4.4.4-1.5,1.8-3.4,3.1-5.6,3.8-1,.4-1.9.6-2.9.8-.5,0-1.9.4-2.3,0-1-.7.2-1.5.8-1.8,3.1-1.6,6.8-1.8,9.7-3.3ZM451.6,224.8c-.9,3-6.7,3.2-9.1,3.4-3.5.2-6.9,0-10.4-.3-4.4-.7-8.5-2.4-12.1-5.1-4.3-3.1-7.7-6.9-10.2-11.6,2.3,3,4.9,5.5,8,7.7,4.9,3.1,10.2,5.1,16,6.1,3.9.9,7.8,1.3,11.7,1.4,2.1,0,4.5-.2,6.1-1.4ZM407.7,205.9c6.8,4,15.1.2,22.2,3.5,7.7,3.5,13.6,10.3,21.3,13.6-2.9,4.9-15.3,1.5-19.5.6-5.3-1.1-10.2-3.3-14.6-6.4-3.6-2.6-6.3-6.3-9.1-9.8v-.3c-.2,0-.2-.1-.3-.2v-1.1c-.1.1,0,.2,0,.2h0ZM399,185.6c-1.4,4.3-4.3,8.1-7.2,11.5-5.5,6.5-12.9,12.5-20.9,15.6-.4.2-.1.7.3.6,4.6-1.6,8.9-3.8,12.9-6.6,3.9-3,7.4-6.4,10.4-10.2,2.8-3.5,5.6-7.5,6.6-11.9l.3,1.2c0,2.1-.3,4.3-.6,6.4-.8,5.6-2.8,10.6-6.2,15.2-3.7,4.7-8.8,7.3-14.5,8.9-5,1.4-10,2.7-14.6,5-5.1,2.7-9.6,6.2-13.3,10.5.3-1.7.9-3.2,1.8-4.7.8-1.6,1.7-3.2,2.7-4.7,2-2.9,4.2-5.5,6.7-8,5.2-4.8,10.6-9.3,16.4-13.4,5.5-3.9,10.5-8.4,15.2-13.3,1.9-2,3.5-4.1,4.8-6.4,0,1.4-.2,2.9-.7,4.3h0ZM408.1,178.3c1.4-.3,2.9-.3,4.3,0,.7.2,1.5.4,1.5,1.1.2,1.1-1.5,2.2-2.2,2.5-3,1.1-7.4-.4-10-2.6l-.2-.4c2.2.1,4.4,0,6.6-.5h0ZM405.9,156.8c3.1-1,6.2-1.4,9.4-1.4,3.2,0,6.3.5,9.4,1.5,2.7.8,5.3,2,7.6,3.6,2.3,1.6,4.4,3.5,6.1,5.7,2.9,3.7,5.9,8.5,6.6,13.3-2.8-3.1-5.4-6.3-9.5-8-5-2.1-10.2-3.2-15.6-3.2-2.7,0-5.4.5-8.1,0-2.9-.6-5.7-1.6-8.3-3.2-2.1-1.2-4.1-3.1-6.2-4.3,5.4,1,10.9-.7,16.5-.6,8.9.2,16.3,5.4,23.3,10.3.4.3.9-.4.4-.7-6.4-4.4-12.8-8.9-20.6-10.1-6.8-1.1-13.8,1.8-20.3.2,3.2-.4,6.4-2.1,9.3-3.1h0Z"/>
            </g>
          </g>
        </g>
      </g>
      <g class="cls-13">
        <g class="cls-11">
          <g class="cls-12">
            <g class="cls-10">
              <path d="M366.9,252.3c0,1.3.4,2.4,1.3,3.3,0,.3.3.5.6.6,0,0,.2,0,.3,0,.5.3,1,.3,1.5.3.4,0,.8-.1,1.2-.4s.6-.6.7-1c.1-.4.1-.8,0-1.3s-.4-.7-.8-1c0-.5-.2-1.1-.5-1.5-.3-.5-.6-.9-1.1-1.2-1.5-.9-3.2.6-3.3,2.1ZM369.1,251.4c.4,0,.8.4,1,.9-.6,0-.7.8-.2,1,.1,0,.3.1.4.2,0,.5-.3.9-.6,1.2-.1,0-.2-.2-.3-.3-.5-.5-1.6-2.7-.2-3h0Z"/>
            </g>
          </g>
        </g>
      </g>
      <g class="cls-7">
        <g class="cls-4">
          <g class="cls-8">
            <g class="cls-5">
              <path d="M373.8,254.8c0,.5.8.4.8,0,0,0,.2,0,.2,0,.3,0,.6.1.9.2.5.2.7-.6.3-.8-.7-.4-2.3-.7-2.2.6Z"/>
            </g>
          </g>
        </g>
      </g>
      <g class="cls-28">
        <g class="cls-29">
          <g class="cls-30">
            <g class="cls-31">
              <path d="M373.9,250.6c-.3.4-.7.8-1,1.2-.4.4.2,1,.6.6.4-.4.8-.9,1.1-1.4.3-.4-.4-.9-.7-.4Z"/>
            </g>
          </g>
        </g>
      </g>
      <g class="cls-32">
        <g class="cls-33">
          <g class="cls-26">
            <g class="cls-24">
              <path d="M366.9,247.1c.2.3.2.6,0,1-.2.5.4.9.7.4.2-.3.3-.6.3-.9,0-.3,0-.6-.3-.9-.2-.2-.3-.2-.5-.1-.2.1-.3.3-.2.5Z"/>
            </g>
          </g>
        </g>
      </g>
      <g class="cls-27">
        <g class="cls-25">
          <g class="cls-20">
            <g class="cls-14">
              <path d="M365.6,246.6c.1.2.3.2.5.1.2-.1.3-.3.2-.5-.1-.2-.3-.2-.5-.1-.2.1-.3.3-.2.5Z"/>
            </g>
          </g>
        </g>
      </g>
      <g class="cls-15">
        <g class="cls-16">
          <g class="cls-17">
            <g class="cls-18">
              <path d="M364.6,254.5c-.4.3,0,.8.4.7,0,0,.1.1.3.2s.2,0,.3,0c0,0,.2-.1.2-.3,0-.1,0-.2,0-.3-.2-.5-.7-.6-1.1-.3Z"/>
            </g>
          </g>
        </g>
      </g>
      <g class="cls-21">
        <g class="cls-22">
          <g class="cls-23">
            <g class="cls-19">
              <path d="M367.4,259.4h.7c.5,0,.6-.9,0-.8h-.7c-.5,0-.6.9,0,.8Z"/>
            </g>
          </g>
        </g>
      </g>
      <path d="M253.4,210.6c1.1,1.6,1.9,3.2,2.5,5,.5,1.8.9,3.6,1.1,5.5.5,5.3.3,10.4-.6,15.3-.9,5-2.3,9.9-4.3,14.7-3.1,7.8-6.7,15.3-10.9,22.4-4.2,7.1-9,13.9-14.3,20.4-2.3,2.8-4.8,5.3-7.5,7.7-2.7,2.4-5.7,4.4-8.9,6.1-1.7.9-3.4,1.6-5.2,2-1.8.4-3.6.5-5.5,0-3-.6-5.3-1.9-6.9-3.8-1.6-1.9-2.7-4.3-3.3-7.2-.5-2.8-.6-5.4,0-8,.5-2.6,1.3-5.1,2.5-7.6,2.4-5.2,5.5-9.7,9.3-13.7,3.7-4,8.1-7.4,13.1-10.1,1.3-.7,2.7-1.3,4.2-1.7,1.4-.4,2.9-.6,4.5-.6,2.4,0,4.3,1.1,5.8,3.1.2.3.4.6.5.9.2.4,0,.7-.3,1-.3.2-.7.2-1,0-.3-.2-.6-.5-.8-.8-.2-.3-.4-.6-.5-.9-.3-.5-.8-.9-1.3-1.1-.5-.3-1.1-.4-1.8-.3-1.2.1-2.4.4-3.6.7-1.2.3-2.3.8-3.4,1.4-5.6,3-10.4,6.7-14.2,11.3-3.8,4.5-6.8,9.8-8.9,15.7-.8,2.2-1.2,4.5-1.3,6.7-.1,2.3.2,4.5.9,6.8,2,6.1,5.9,8,11.9,5.7,2.3-.8,4.4-2,6.4-3.3s3.9-2.9,5.7-4.5c3.8-3.3,7.2-6.8,10.2-10.8,3-3.9,5.8-8,8.4-12.2,3.1-5,6-10.2,8.6-15.4,2.6-5.3,4.8-10.7,6.6-16.4,1-3.1,1.7-6.2,2.3-9.3.5-3.1.8-6,.9-8.8,0-2.2-.1-4.2-.3-6-.2-1.8-.4-3.5-.9-5.1-.2-.8-.5-1.7-.9-2.5-.4-.8-.8-1.6-1.3-2.3-1.5-2.3-3.6-3.1-6.3-2.6-2.2.5-4.5,1.5-6.9,3.1-2.4,1.6-4.9,3.5-7.4,5.7-2.5,2.2-5.1,4.5-7.8,6.8-2.6,2.3-5.3,4.5-7.9,6.5-2.6,2-5.3,3.6-7.9,4.8-2.6,1.2-5.2,1.7-7.6,1.5-.2,0-.4,0-.6-.1-.2,0-.4-.1-.5-.3-.4-.3-.4-.5.1-.6,2.6.2,5.1-.3,7.7-1.4,2.5-1.1,5-2.6,7.5-4.6,2.5-1.9,4.9-4.1,7.3-6.4,2.4-2.3,4.7-4.6,7.1-6.8,2.3-2.2,4.6-4.2,6.9-5.9,2.3-1.7,4.6-2.9,6.8-3.6,2.3-.7,4.5-.7,6.8,0,2.2.8,4,2.1,5.4,4Z"/>
      <path d="M244.9,252.3c-1.2-1.5-2.1-3.1-2.7-4.9-.6-1.8-1.1-3.6-1.3-5.5-.7-5.2-.8-10.3,0-15.3.7-5,1.9-10,3.6-14.8,2.7-8,6-15.6,9.8-22.9,3.8-7.3,8.3-14.3,13.4-21,2.2-2.9,4.6-5.5,7.2-8,2.6-2.5,5.5-4.6,8.6-6.5,1.6-1,3.3-1.7,5.1-2.3,1.8-.5,3.6-.6,5.5-.3,3,.5,5.4,1.6,7.1,3.5,1.7,1.8,2.9,4.1,3.6,7,.7,2.7.8,5.4.4,8-.4,2.6-1.1,5.2-2.1,7.7-2.2,5.3-5.1,10-8.6,14.1-3.5,4.2-7.8,7.7-12.6,10.7-1.3.8-2.7,1.4-4.1,1.9-1.4.5-2.9.7-4.5.8-2.4,0-4.3-.9-5.9-2.8-.2-.3-.4-.5-.6-.9-.2-.3-.1-.7.2-1,.3-.2.7-.3,1,0,.3.2.6.5.8.8.2.3.4.6.6.8.4.5.8.8,1.3,1.1.5.2,1.1.3,1.8.3,1.2-.2,2.4-.5,3.6-.9,1.1-.4,2.2-.9,3.3-1.5,5.5-3.2,10.1-7.2,13.7-11.9,3.6-4.7,6.4-10.1,8.2-16.1.6-2.3,1-4.5,1-6.8,0-2.3-.4-4.5-1.2-6.8-2.2-6-6.3-7.7-12.1-5.1-2.2.9-4.3,2.2-6.3,3.6-1.9,1.5-3.8,3-5.5,4.7-3.6,3.4-6.8,7.1-9.7,11.2-2.8,4-5.4,8.2-7.9,12.6-2.9,5.2-5.5,10.4-7.8,15.8-2.3,5.4-4.3,11-5.8,16.7-.8,3.1-1.4,6.3-1.8,9.4-.4,3.1-.5,6.1-.5,8.8.1,2.2.3,4.2.6,6,.2,1.8.6,3.5,1.1,5.1.3.8.6,1.6,1,2.4.4.8.9,1.6,1.4,2.3,1.6,2.2,3.7,3,6.4,2.3,2.2-.6,4.4-1.7,6.7-3.4,2.3-1.7,4.7-3.7,7.1-6,2.4-2.3,4.9-4.7,7.4-7.1,2.5-2.4,5.1-4.7,7.6-6.8,2.6-2.1,5.1-3.8,7.6-5.1,2.5-1.3,5.1-1.9,7.5-1.9.2,0,.4,0,.6.1.2,0,.4.1.5.3.4.3.4.5,0,.6-2.6,0-5.1.5-7.6,1.8-2.5,1.2-4.9,2.9-7.3,4.9-2.4,2.1-4.7,4.3-7,6.7-2.3,2.4-4.5,4.8-6.7,7.1-2.2,2.3-4.4,4.4-6.7,6.2-2.2,1.8-4.4,3.1-6.6,3.9-2.2.8-4.5.9-6.8.2-2.3-.7-4.1-1.9-5.6-3.7Z"/>
      <path class="cls-3" d="M261.1,75.1c30.4-.2,58.1,11,83.1,26.7"/>
      <path class="cls-3" d="M200.9,365.4c-26.3-11.2-49.4-29.4-65.8-52.7-16.8-23.8-26.5-52.4-27.8-81.5-.7-15.2,2-30.5,5.8-45.3"/>
      <path class="cls-2" d="M147.7,123.8c4.3-5,9.2-9.8,14.6-14.5"/>
      <path class="cls-2" d="M131.1,145.4c3-4.8,6.4-9.7,10.4-14.7"/>
      <path class="cls-3" d="M117.7,171.9c1.9-4.8,4.5-10.5,7.8-16.8"/>
    </g>
  </g>
</svg>